# Blender 4.3.2
# www.blender.org
mtllib legged_robot_upper_link_R.mtl
o DWLRP_R_HipServo_Body
v -0.036000 -0.032000 -0.010000
v -0.036000 -0.032000 0.010000
v -0.036000 0.008000 -0.010000
v -0.036000 0.008000 0.010000
v 0.000000 -0.032000 -0.010000
v 0.000000 -0.032000 0.010000
v 0.000000 0.008000 -0.010000
v 0.000000 0.008000 0.010000
vn -1.0000 -0.0000 -0.0000
vn -0.0000 1.0000 -0.0000
vn 1.0000 -0.0000 -0.0000
vn -0.0000 -1.0000 -0.0000
vn -0.0000 -0.0000 -1.0000
vn -0.0000 -0.0000 1.0000
s 0
usemtl DWLRP_Black
f 1//1 2//1 4//1 3//1
f 3//2 4//2 8//2 7//2
f 7//3 8//3 6//3 5//3
f 5//4 6//4 2//4 1//4
f 3//5 7//5 5//5 1//5
f 8//6 4//6 2//6 6//6
o DWLRP_R_HipServo_Spline
v 0.000000 0.003000 -0.000000
v 0.004500 0.003000 0.000000
v 0.000000 0.002942 -0.000585
v 0.004500 0.002942 -0.000585
v 0.000000 0.002772 -0.001148
v 0.004500 0.002772 -0.001148
v 0.000000 0.002494 -0.001667
v 0.004500 0.002494 -0.001667
v 0.000000 0.002121 -0.002121
v 0.004500 0.002121 -0.002121
v 0.000000 0.001667 -0.002494
v 0.004500 0.001667 -0.002494
v 0.000000 0.001148 -0.002772
v 0.004500 0.001148 -0.002772
v 0.000000 0.000585 -0.002942
v 0.004500 0.000585 -0.002942
v 0.000000 0.000000 -0.003000
v 0.004500 0.000000 -0.003000
v 0.000000 -0.000585 -0.002942
v 0.004500 -0.000585 -0.002942
v 0.000000 -0.001148 -0.002772
v 0.004500 -0.001148 -0.002772
v 0.000000 -0.001667 -0.002494
v 0.004500 -0.001667 -0.002494
v 0.000000 -0.002121 -0.002121
v 0.004500 -0.002121 -0.002121
v 0.000000 -0.002494 -0.001667
v 0.004500 -0.002494 -0.001667
v 0.000000 -0.002772 -0.001148
v 0.004500 -0.002772 -0.001148
v 0.000000 -0.002942 -0.000585
v 0.004500 -0.002942 -0.000585
v 0.000000 -0.003000 -0.000000
v 0.004500 -0.003000 0.000000
v 0.000000 -0.002942 0.000585
v 0.004500 -0.002942 0.000585
v 0.000000 -0.002772 0.001148
v 0.004500 -0.002772 0.001148
v -0.000000 -0.002494 0.001667
v 0.004500 -0.002494 0.001667
v -0.000000 -0.002121 0.002121
v 0.004500 -0.002121 0.002121
v -0.000000 -0.001667 0.002494
v 0.004500 -0.001667 0.002494
v -0.000000 -0.001148 0.002772
v 0.004500 -0.001148 0.002772
v -0.000000 -0.000585 0.002942
v 0.004500 -0.000585 0.002942
v -0.000000 0.000000 0.003000
v 0.004500 0.000000 0.003000
v -0.000000 0.000585 0.002942
v 0.004500 0.000585 0.002942
v -0.000000 0.001148 0.002772
v 0.004500 0.001148 0.002772
v -0.000000 0.001667 0.002494
v 0.004500 0.001667 0.002494
v -0.000000 0.002121 0.002121
v 0.004500 0.002121 0.002121
v -0.000000 0.002494 0.001667
v 0.004500 0.002494 0.001667
v 0.000000 0.002772 0.001148
v 0.004500 0.002772 0.001148
v 0.000000 0.002942 0.000585
v 0.004500 0.002942 0.000585
vn -0.0000 0.9952 -0.0980
vn -0.0000 0.9569 -0.2903
vn -0.0000 0.8819 -0.4714
vn -0.0000 0.7730 -0.6344
vn -0.0000 0.6344 -0.7730
vn -0.0000 0.4714 -0.8819
vn -0.0000 0.2903 -0.9569
vn -0.0000 0.0980 -0.9952
vn -0.0000 -0.0980 -0.9952
vn -0.0000 -0.2903 -0.9569
vn -0.0000 -0.4714 -0.8819
vn -0.0000 -0.6344 -0.7730
vn -0.0000 -0.7730 -0.6344
vn -0.0000 -0.8819 -0.4714
vn -0.0000 -0.9569 -0.2903
vn -0.0000 -0.9952 -0.0980
vn -0.0000 -0.9952 0.0980
vn -0.0000 -0.9569 0.2903
vn -0.0000 -0.8819 0.4714
vn -0.0000 -0.7730 0.6344
vn -0.0000 -0.6344 0.7730
vn -0.0000 -0.4714 0.8819
vn -0.0000 -0.2903 0.9569
vn -0.0000 -0.0980 0.9952
vn -0.0000 0.0980 0.9952
vn -0.0000 0.2903 0.9569
vn -0.0000 0.4714 0.8819
vn -0.0000 0.6344 0.7730
vn -0.0000 0.7730 0.6344
vn -0.0000 0.8819 0.4714
vn 1.0000 -0.0000 -0.0000
vn -0.0000 0.9569 0.2903
vn -0.0000 0.9952 0.0980
vn -1.0000 -0.0000 -0.0000
s 0
usemtl DWLRP_Metal
f 9//7 10//7 12//7 11//7
f 11//8 12//8 14//8 13//8
f 13//9 14//9 16//9 15//9
f 15//10 16//10 18//10 17//10
f 17//11 18//11 20//11 19//11
f 19//12 20//12 22//12 21//12
f 21//13 22//13 24//13 23//13
f 23//14 24//14 26//14 25//14
f 25//15 26//15 28//15 27//15
f 27//16 28//16 30//16 29//16
f 29//17 30//17 32//17 31//17
f 31//18 32//18 34//18 33//18
f 33//19 34//19 36//19 35//19
f 35//20 36//20 38//20 37//20
f 37//21 38//21 40//21 39//21
f 39//22 40//22 42//22 41//22
f 41//23 42//23 44//23 43//23
f 43//24 44//24 46//24 45//24
f 45//25 46//25 48//25 47//25
f 47//26 48//26 50//26 49//26
f 49//27 50//27 52//27 51//27
f 51//28 52//28 54//28 53//28
f 53//29 54//29 56//29 55//29
f 55//30 56//30 58//30 57//30
f 57//31 58//31 60//31 59//31
f 59//32 60//32 62//32 61//32
f 61//33 62//33 64//33 63//33
f 63//34 64//34 66//34 65//34
f 65//35 66//35 68//35 67//35
f 67//36 68//36 70//36 69//36
f 12//37 10//37 72//37 70//37 68//37 66//37 64//37 62//37 60//37 58//37 56//37 54//37 52//37 50//37 48//37 46//37 44//37 42//37 40//37 38//37 36//37 34//37 32//37 30//37 28//37 26//37 24//37 22//37 20//37 18//37 16//37 14//37
f 69//38 70//38 72//38 71//38
f 71//39 72//39 10//39 9//39
f 9//40 11//40 13//40 15//40 17//40 19//40 21//40 23//40 25//40 27//40 29//40 31//40 33//40 35//40 37//40 39//40 41//40 43//40 45//40 47//40 49//40 51//40 53//40 55//40 57//40 59//40 61//40 63//40 65//40 67//40 69//40 71//40
o DWLRP_R_HornBracket
v 0.002500 0.005000 -0.003000
v 0.002500 0.005000 0.003000
v 0.002500 0.019000 -0.003000
v 0.002500 0.019000 0.003000
v 0.006500 0.005000 -0.003000
v 0.006500 0.005000 0.003000
v 0.006500 0.019000 -0.003000
v 0.006500 0.019000 0.003000
vn -1.0000 -0.0000 -0.0000
vn -0.0000 1.0000 -0.0000
vn 1.0000 -0.0000 -0.0000
vn -0.0000 -1.0000 -0.0000
vn -0.0000 -0.0000 -1.0000
vn -0.0000 -0.0000 1.0000
s 0
usemtl DWLRP_Metal
f 73//41 74//41 76//41 75//41
f 75//42 76//42 80//42 79//42
f 79//43 80//43 78//43 77//43
f 77//44 78//44 74//44 73//44
f 75//45 79//45 77//45 73//45
f 80//46 76//46 74//46 78//46
o DWLRP_R_UpperPlateFront
v -0.004500 0.002000 -0.040000
v -0.004500 0.002000 0.000000
v -0.004500 0.005000 -0.040000
v -0.004500 0.005000 0.000000
v 0.004500 0.002000 -0.040000
v 0.004500 0.002000 0.000000
v 0.004500 0.005000 -0.040000
v 0.004500 0.005000 0.000000
vn -1.0000 -0.0000 -0.0000
vn -0.0000 1.0000 -0.0000
vn 1.0000 -0.0000 -0.0000
vn -0.0000 -1.0000 -0.0000
vn -0.0000 -0.0000 -1.0000
vn -0.0000 -0.0000 1.0000
s 0
usemtl DWLRP_Plate
f 81//47 82//47 84//47 83//47
f 83//48 84//48 88//48 87//48
f 87//49 88//49 86//49 85//49
f 85//50 86//50 82//50 81//50
f 83//51 87//51 85//51 81//51
f 88//52 84//52 82//52 86//52
o DWLRP_R_UpperPlateBack
v -0.004500 -0.005000 -0.040000
v -0.004500 -0.005000 0.000000
v -0.004500 -0.002000 -0.040000
v -0.004500 -0.002000 0.000000
v 0.004500 -0.005000 -0.040000
v 0.004500 -0.005000 0.000000
v 0.004500 -0.002000 -0.040000
v 0.004500 -0.002000 0.000000
vn -1.0000 -0.0000 -0.0000
vn -0.0000 1.0000 -0.0000
vn 1.0000 -0.0000 -0.0000
vn -0.0000 -1.0000 -0.0000
vn -0.0000 -0.0000 -1.0000
vn -0.0000 -0.0000 1.0000
s 0
usemtl DWLRP_Plate
f 89//53 90//53 92//53 91//53
f 91//54 92//54 96//54 95//54
f 95//55 96//55 94//55 93//55
f 93//56 94//56 90//56 89//56
f 91//57 95//57 93//57 89//57
f 96//58 92//58 90//58 94//58
o DWLRP_R_KneeKnuckle
v -0.001250 0.006500 -0.040000
v 0.001250 0.006500 -0.040000
v -0.001250 0.005000 -0.042598
v 0.001250 0.005000 -0.042598
v -0.001250 0.002000 -0.042598
v 0.001250 0.002000 -0.042598
v -0.001250 0.000500 -0.040000
v 0.001250 0.000500 -0.040000
v -0.001250 0.002000 -0.037402
v 0.001250 0.002000 -0.037402
v -0.001250 0.005000 -0.037402
v 0.001250 0.005000 -0.037402
vn -0.0000 0.8660 -0.5000
vn -0.0000 -0.0000 -1.0000
vn -0.0000 -0.8660 -0.5000
vn -0.0000 -0.8660 0.5000
vn 1.0000 -0.0000 -0.0000
vn -0.0000 -0.0000 1.0000
vn -0.0000 0.8660 0.5000
vn -1.0000 -0.0000 -0.0000
s 0
usemtl DWLRP_Metal
f 97//59 98//59 100//59 99//59
f 99//60 100//60 102//60 101//60
f 101//61 102//61 104//61 103//61
f 103//62 104//62 106//62 105//62
f 100//63 98//63 108//63 106//63 104//63 102//63
f 105//64 106//64 108//64 107//64
f 107//65 108//65 98//65 97//65
f 97//66 99//66 101//66 103//66 105//66 107//66
