# Blender 4.3.2
# www.blender.org
mtllib legged_robot_lower_link_R.mtl
o DWLRP_R_LowerPlate
v -0.006000 -0.003000 -0.030000
v -0.006000 -0.003000 0.000000
v -0.006000 0.003000 -0.030000
v -0.006000 0.003000 0.000000
v 0.006000 -0.003000 -0.030000
v 0.006000 -0.003000 0.000000
v 0.006000 0.003000 -0.030000
v 0.006000 0.003000 0.000000
vn -1.0000 -0.0000 -0.0000
vn -0.0000 1.0000 -0.0000
vn 1.0000 -0.0000 -0.0000
vn -0.0000 -1.0000 -0.0000
vn -0.0000 -0.0000 -1.0000
vn -0.0000 -0.0000 1.0000
s 0
usemtl DWLRP_Plate
f 1//1 2//1 4//1 3//1
f 3//2 4//2 8//2 7//2
f 7//3 8//3 6//3 5//3
f 5//4 6//4 2//4 1//4
f 3//5 7//5 5//5 1//5
f 8//6 4//6 2//6 6//6
o DWLRP_R_AnkleBlock
v -0.008000 -0.010000 -0.037000
v -0.008000 -0.010000 -0.023000
v -0.008000 0.010000 -0.037000
v -0.008000 0.010000 -0.023000
v 0.008000 -0.010000 -0.037000
v 0.008000 -0.010000 -0.023000
v 0.008000 0.010000 -0.037000
v 0.008000 0.010000 -0.023000
vn -1.0000 -0.0000 -0.0000
vn -0.0000 1.0000 -0.0000
vn 1.0000 -0.0000 -0.0000
vn -0.0000 -1.0000 -0.0000
vn -0.0000 -0.0000 -1.0000
vn -0.0000 -0.0000 1.0000
s 0
usemtl DWLRP_Metal
f 9//7 10//7 12//7 11//7
f 11//8 12//8 16//8 15//8
f 15//9 16//9 14//9 13//9
f 13//10 14//10 10//10 9//10
f 11//11 15//11 13//11 9//11
f 16//12 12//12 10//12 14//12
o DWLRP_R_AnkleKnuckle
v -0.001250 0.003000 -0.030000
v 0.001250 0.003000 -0.030000
v -0.001250 0.001500 -0.032598
v 0.001250 0.001500 -0.032598
v -0.001250 -0.001500 -0.032598
v 0.001250 -0.001500 -0.032598
v -0.001250 -0.003000 -0.030000
v 0.001250 -0.003000 -0.030000
v -0.001250 -0.001500 -0.027402
v 0.001250 -0.001500 -0.027402
v -0.001250 0.001500 -0.027402
v 0.001250 0.001500 -0.027402
vn -0.0000 0.8660 -0.5000
vn -0.0000 -0.0000 -1.0000
vn -0.0000 -0.8660 -0.5000
vn -0.0000 -0.8660 0.5000
vn 1.0000 -0.0000 -0.0000
vn -0.0000 -0.0000 1.0000
vn -0.0000 0.8660 0.5000
vn -1.0000 -0.0000 -0.0000
s 0
usemtl DWLRP_Metal
f 17//13 18//13 20//13 19//13
f 19//14 20//14 22//14 21//14
f 21//15 22//15 24//15 23//15
f 23//16 24//16 26//16 25//16
f 20//17 18//17 28//17 26//17 24//17 22//17
f 25//18 26//18 28//18 27//18
f 27//19 28//19 18//19 17//19
f 17//20 19//20 21//20 23//20 25//20 27//20
o DWLRP_R_WheelServo_Body
v -0.036000 -0.032000 -0.050000
v -0.036000 -0.032000 -0.030000
v -0.036000 0.008000 -0.050000
v -0.036000 0.008000 -0.030000
v 0.000000 -0.032000 -0.050000
v 0.000000 -0.032000 -0.030000
v 0.000000 0.008000 -0.050000
v 0.000000 0.008000 -0.030000
vn -1.0000 -0.0000 -0.0000
vn -0.0000 1.0000 -0.0000
vn 1.0000 -0.0000 -0.0000
vn -0.0000 -1.0000 -0.0000
vn -0.0000 -0.0000 -1.0000
vn -0.0000 -0.0000 1.0000
s 0
usemtl DWLRP_Black
f 29//21 30//21 32//21 31//21
f 31//22 32//22 36//22 35//22
f 35//23 36//23 34//23 33//23
f 33//24 34//24 30//24 29//24
f 31//25 35//25 33//25 29//25
f 36//26 32//26 30//26 34//26
o DWLRP_R_WheelServo_Spline
v 0.000000 0.003000 -0.040000
v 0.004500 0.003000 -0.040000
v 0.000000 0.002942 -0.040585
v 0.004500 0.002942 -0.040585
v 0.000000 0.002772 -0.041148
v 0.004500 0.002772 -0.041148
v 0.000000 0.002494 -0.041667
v 0.004500 0.002494 -0.041667
v 0.000000 0.002121 -0.042121
v 0.004500 0.002121 -0.042121
v 0.000000 0.001667 -0.042494
v 0.004500 0.001667 -0.042494
v 0.000000 0.001148 -0.042772
v 0.004500 0.001148 -0.042772
v 0.000000 0.000585 -0.042942
v 0.004500 0.000585 -0.042942
v 0.000000 0.000000 -0.043000
v 0.004500 0.000000 -0.043000
v 0.000000 -0.000585 -0.042942
v 0.004500 -0.000585 -0.042942
v 0.000000 -0.001148 -0.042772
v 0.004500 -0.001148 -0.042772
v 0.000000 -0.001667 -0.042494
v 0.004500 -0.001667 -0.042494
v 0.000000 -0.002121 -0.042121
v 0.004500 -0.002121 -0.042121
v 0.000000 -0.002494 -0.041667
v 0.004500 -0.002494 -0.041667
v 0.000000 -0.002772 -0.041148
v 0.004500 -0.002772 -0.041148
v 0.000000 -0.002942 -0.040585
v 0.004500 -0.002942 -0.040585
v 0.000000 -0.003000 -0.040000
v 0.004500 -0.003000 -0.040000
v 0.000000 -0.002942 -0.039415
v 0.004500 -0.002942 -0.039415
v 0.000000 -0.002772 -0.038852
v 0.004500 -0.002772 -0.038852
v -0.000000 -0.002494 -0.038333
v 0.004500 -0.002494 -0.038333
v -0.000000 -0.002121 -0.037879
v 0.004500 -0.002121 -0.037879
v -0.000000 -0.001667 -0.037506
v 0.004500 -0.001667 -0.037506
v -0.000000 -0.001148 -0.037228
v 0.004500 -0.001148 -0.037228
v -0.000000 -0.000585 -0.037058
v 0.004500 -0.000585 -0.037058
v -0.000000 0.000000 -0.037000
v 0.004500 0.000000 -0.037000
v -0.000000 0.000585 -0.037058
v 0.004500 0.000585 -0.037058
v -0.000000 0.001148 -0.037228
v 0.004500 0.001148 -0.037228
v -0.000000 0.001667 -0.037506
v 0.004500 0.001667 -0.037506
v -0.000000 0.002121 -0.037879
v 0.004500 0.002121 -0.037879
v -0.000000 0.002494 -0.038333
v 0.004500 0.002494 -0.038333
v 0.000000 0.002772 -0.038852
v 0.004500 0.002772 -0.038852
v 0.000000 0.002942 -0.039415
v 0.004500 0.002942 -0.039415
vn -0.0000 0.9952 -0.0980
vn -0.0000 0.9569 -0.2903
vn -0.0000 0.8819 -0.4714
vn -0.0000 0.7730 -0.6344
vn -0.0000 0.6344 -0.7730
vn -0.0000 0.4714 -0.8819
vn -0.0000 0.2903 -0.9569
vn -0.0000 0.0980 -0.9952
vn -0.0000 -0.0980 -0.9952
vn -0.0000 -0.2903 -0.9569
vn -0.0000 -0.4714 -0.8819
vn -0.0000 -0.6344 -0.7730
vn -0.0000 -0.7730 -0.6344
vn -0.0000 -0.8819 -0.4714
vn -0.0000 -0.9569 -0.2903
vn -0.0000 -0.9952 -0.0980
vn -0.0000 -0.9952 0.0980
vn -0.0000 -0.9569 0.2903
vn -0.0000 -0.8819 0.4714
vn -0.0000 -0.7730 0.6344
vn -0.0000 -0.6344 0.7730
vn -0.0000 -0.4714 0.8819
vn -0.0000 -0.2903 0.9569
vn -0.0000 -0.0980 0.9952
vn -0.0000 0.0980 0.9952
vn -0.0000 0.2903 0.9569
vn -0.0000 0.4714 0.8819
vn -0.0000 0.6344 0.7730
vn -0.0000 0.7730 0.6344
vn -0.0000 0.8819 0.4714
vn 1.0000 -0.0000 -0.0000
vn -0.0000 0.9569 0.2903
vn -0.0000 0.9952 0.0980
vn -1.0000 -0.0000 -0.0000
s 0
usemtl DWLRP_Metal
f 37//27 38//27 40//27 39//27
f 39//28 40//28 42//28 41//28
f 41//29 42//29 44//29 43//29
f 43//30 44//30 46//30 45//30
f 45//31 46//31 48//31 47//31
f 47//32 48//32 50//32 49//32
f 49//33 50//33 52//33 51//33
f 51//34 52//34 54//34 53//34
f 53//35 54//35 56//35 55//35
f 55//36 56//36 58//36 57//36
f 57//37 58//37 60//37 59//37
f 59//38 60//38 62//38 61//38
f 61//39 62//39 64//39 63//39
f 63//40 64//40 66//40 65//40
f 65//41 66//41 68//41 67//41
f 67//42 68//42 70//42 69//42
f 69//43 70//43 72//43 71//43
f 71//44 72//44 74//44 73//44
f 73//45 74//45 76//45 75//45
f 75//46 76//46 78//46 77//46
f 77//47 78//47 80//47 79//47
f 79//48 80//48 82//48 81//48
f 81//49 82//49 84//49 83//49
f 83//50 84//50 86//50 85//50
f 85//51 86//51 88//51 87//51
f 87//52 88//52 90//52 89//52
f 89//53 90//53 92//53 91//53
f 91//54 92//54 94//54 93//54
f 93//55 94//55 96//55 95//55
f 95//56 96//56 98//56 97//56
f 40//57 38//57 100//57 98//57 96//57 94//57 92//57 90//57 88//57 86//57 84//57 82//57 80//57 78//57 76//57 74//57 72//57 70//57 68//57 66//57 64//57 62//57 60//57 58//57 56//57 54//57 52//57 50//57 48//57 46//57 44//57 42//57
f 97//58 98//58 100//58 99//58
f 99//59 100//59 38//59 37//59
f 37//60 39//60 41//60 43//60 45//60 47//60 49//60 51//60 53//60 55//60 57//60 59//60 61//60 63//60 65//60 67//60 69//60 71//60 73//60 75//60 77//60 79//60 81//60 83//60 85//60 87//60 89//60 91//60 93//60 95//60 97//60 99//60
o DWLRP_R_AxleStub
v 0.000000 0.004000 -0.040000
v 0.022000 0.004000 -0.040000
v 0.000000 0.003923 -0.040780
v 0.022000 0.003923 -0.040780
v 0.000000 0.003696 -0.041531
v 0.022000 0.003696 -0.041531
v 0.000000 0.003326 -0.042222
v 0.022000 0.003326 -0.042222
v 0.000000 0.002828 -0.042828
v 0.022000 0.002828 -0.042828
v 0.000000 0.002222 -0.043326
v 0.022000 0.002222 -0.043326
v 0.000000 0.001531 -0.043696
v 0.022000 0.001531 -0.043696
v 0.000000 0.000780 -0.043923
v 0.022000 0.000780 -0.043923
v 0.000000 0.000000 -0.044000
v 0.022000 0.000000 -0.044000
v 0.000000 -0.000780 -0.043923
v 0.022000 -0.000780 -0.043923
v 0.000000 -0.001531 -0.043696
v 0.022000 -0.001531 -0.043696
v 0.000000 -0.002222 -0.043326
v 0.022000 -0.002222 -0.043326
v 0.000000 -0.002828 -0.042828
v 0.022000 -0.002828 -0.042828
v 0.000000 -0.003326 -0.042222
v 0.022000 -0.003326 -0.042222
v 0.000000 -0.003696 -0.041531
v 0.022000 -0.003696 -0.041531
v 0.000000 -0.003923 -0.040780
v 0.022000 -0.003923 -0.040780
v 0.000000 -0.004000 -0.040000
v 0.022000 -0.004000 -0.040000
v 0.000000 -0.003923 -0.039220
v 0.022000 -0.003923 -0.039220
v 0.000000 -0.003696 -0.038469
v 0.022000 -0.003696 -0.038469
v 0.000000 -0.003326 -0.037778
v 0.022000 -0.003326 -0.037778
v 0.000000 -0.002828 -0.037172
v 0.022000 -0.002828 -0.037172
v 0.000000 -0.002222 -0.036674
v 0.022000 -0.002222 -0.036674
v 0.000000 -0.001531 -0.036304
v 0.022000 -0.001531 -0.036304
v 0.000000 -0.000780 -0.036077
v 0.022000 -0.000780 -0.036077
v 0.000000 0.000000 -0.036000
v 0.022000 0.000000 -0.036000
v 0.000000 0.000780 -0.036077
v 0.022000 0.000780 -0.036077
v 0.000000 0.001531 -0.036304
v 0.022000 0.001531 -0.036304
v 0.000000 0.002222 -0.036674
v 0.022000 0.002222 -0.036674
v 0.000000 0.002828 -0.037172
v 0.022000 0.002828 -0.037172
v 0.000000 0.003326 -0.037778
v 0.022000 0.003326 -0.037778
v 0.000000 0.003696 -0.038469
v 0.022000 0.003696 -0.038469
v 0.000000 0.003923 -0.039220
v 0.022000 0.003923 -0.039220
vn -0.0000 0.9952 -0.0980
vn -0.0000 0.9569 -0.2903
vn -0.0000 0.8819 -0.4714
vn -0.0000 0.7730 -0.6344
vn -0.0000 0.6344 -0.7730
vn -0.0000 0.4714 -0.8819
vn -0.0000 0.2903 -0.9569
vn -0.0000 0.0980 -0.9952
vn -0.0000 -0.0980 -0.9952
vn -0.0000 -0.2903 -0.9569
vn -0.0000 -0.4714 -0.8819
vn -0.0000 -0.6344 -0.7730
vn -0.0000 -0.7730 -0.6344
vn -0.0000 -0.8819 -0.4714
vn -0.0000 -0.9569 -0.2903
vn -0.0000 -0.9952 -0.0980
vn -0.0000 -0.9952 0.0980
vn -0.0000 -0.9569 0.2903
vn -0.0000 -0.8819 0.4714
vn -0.0000 -0.7730 0.6344
vn -0.0000 -0.6344 0.7730
vn -0.0000 -0.4714 0.8819
vn -0.0000 -0.2903 0.9569
vn -0.0000 -0.0980 0.9952
vn -0.0000 0.0980 0.9952
vn -0.0000 0.2903 0.9569
vn -0.0000 0.4714 0.8819
vn -0.0000 0.6344 0.7730
vn -0.0000 0.7730 0.6344
vn -0.0000 0.8819 0.4714
vn 1.0000 -0.0000 -0.0000
vn -0.0000 0.9569 0.2903
vn -0.0000 0.9952 0.0980
vn -1.0000 -0.0000 -0.0000
s 0
usemtl DWLRP_Metal
f 101//61 102//61 104//61 103//61
f 103//62 104//62 106//62 105//62
f 105//63 106//63 108//63 107//63
f 107//64 108//64 110//64 109//64
f 109//65 110//65 112//65 111//65
f 111//66 112//66 114//66 113//66
f 113//67 114//67 116//67 115//67
f 115//68 116//68 118//68 117//68
f 117//69 118//69 120//69 119//69
f 119//70 120//70 122//70 121//70
f 121//71 122//71 124//71 123//71
f 123//72 124//72 126//72 125//72
f 125//73 126//73 128//73 127//73
f 127//74 128//74 130//74 129//74
f 129//75 130//75 132//75 131//75
f 131//76 132//76 134//76 133//76
f 133//77 134//77 136//77 135//77
f 135//78 136//78 138//78 137//78
f 137//79 138//79 140//79 139//79
f 139//80 140//80 142//80 141//80
f 141//81 142//81 144//81 143//81
f 143//82 144//82 146//82 145//82
f 145//83 146//83 148//83 147//83
f 147//84 148//84 150//84 149//84
f 149//85 150//85 152//85 151//85
f 151//86 152//86 154//86 153//86
f 153//87 154//87 156//87 155//87
f 155//88 156//88 158//88 157//88
f 157//89 158//89 160//89 159//89
f 159//90 160//90 162//90 161//90
f 104//91 102//91 164//91 162//91 160//91 158//91 156//91 154//91 152//91 150//91 148//91 146//91 144//91 142//91 140//91 138//91 136//91 134//91 132//91 130//91 128//91 126//91 124//91 122//91 120//91 118//91 116//91 114//91 112//91 110//91 108//91 106//91
f 161//92 162//92 164//92 163//92
f 163//93 164//93 102//93 101//93
f 101//94 103//94 105//94 107//94 109//94 111//94 113//94 115//94 117//94 119//94 121//94 123//94 125//94 127//94 129//94 131//94 133//94 135//94 137//94 139//94 141//94 143//94 145//94 147//94 149//94 151//94 153//94 155//94 157//94 159//94 161//94 163//94
