# Blender 4.3.2
# www.blender.org
mtllib legged_robot_chassis.mtl
o DWLRP_BasePlate
v -0.045000 -0.035000 -0.001500
v -0.045000 -0.035000 0.001500
v -0.045000 0.035000 -0.001500
v -0.045000 0.035000 0.001500
v 0.045000 -0.035000 -0.001500
v 0.045000 -0.035000 0.001500
v 0.045000 0.035000 -0.001500
v 0.045000 0.035000 0.001500
v 0.033500 -0.025000 -0.001500
v 0.033500 0.025000 -0.001500
v 0.033551 -0.025388 -0.001500
v 0.033551 -0.024612 -0.001500
v 0.033551 0.024612 -0.001500
v 0.033551 0.025388 -0.001500
v 0.033701 -0.025750 -0.001500
v 0.033701 0.024250 -0.001500
v 0.033701 -0.024250 -0.001500
v 0.033701 0.025750 -0.001500
v 0.033939 -0.026061 -0.001500
v 0.033939 0.023939 -0.001500
v 0.033939 -0.023939 -0.001500
v 0.034250 0.023701 -0.001500
v 0.034250 -0.023701 -0.001500
v 0.034612 -0.023551 -0.001500
v 0.034612 0.023551 -0.001500
v 0.035000 -0.023500 -0.001500
v 0.034612 -0.026449 -0.001500
v 0.034612 0.026449 -0.001500
v 0.034250 -0.026299 -0.001500
v 0.034250 0.026299 -0.001500
v 0.033939 0.026061 -0.001500
v 0.035000 0.023500 -0.001500
v 0.035388 0.023551 -0.001500
v 0.035388 -0.023551 -0.001500
v 0.035388 0.026449 -0.001500
v 0.035750 -0.023701 -0.001500
v 0.035750 0.023701 -0.001500
v 0.036061 -0.023939 -0.001500
v 0.036061 0.023939 -0.001500
v 0.035750 -0.026299 -0.001500
v 0.035388 -0.026449 -0.001500
v 0.035750 0.026299 -0.001500
v 0.036299 -0.025750 -0.001500
v 0.036299 -0.024250 -0.001500
v 0.036299 0.024250 -0.001500
v 0.036299 0.025750 -0.001500
v 0.036500 -0.025000 -0.001500
v 0.036500 0.025000 -0.001500
v 0.036449 -0.025388 -0.001500
v 0.036449 -0.024612 -0.001500
v 0.036449 0.024612 -0.001500
v 0.036449 0.025388 -0.001500
v 0.036061 0.026061 -0.001500
v 0.036061 -0.026061 -0.001500
v 0.035000 0.026500 -0.001500
v 0.035000 -0.026500 -0.001500
v -0.036500 -0.025000 -0.001500
v -0.036500 0.025000 -0.001500
v -0.036449 -0.025388 -0.001500
v -0.036449 -0.024612 -0.001500
v -0.036449 0.024612 -0.001500
v -0.036449 0.025388 -0.001500
v -0.036299 0.024250 -0.001500
v -0.036299 -0.025750 -0.001500
v -0.036299 -0.024250 -0.001500
v -0.036299 0.025750 -0.001500
v -0.036061 0.023939 -0.001500
v -0.036061 -0.023939 -0.001500
v -0.035750 -0.023701 -0.001500
v -0.035750 0.023701 -0.001500
v -0.035388 -0.023551 -0.001500
v -0.035388 0.023551 -0.001500
v -0.035388 -0.026449 -0.001500
v -0.035388 0.026449 -0.001500
v -0.035750 -0.026299 -0.001500
v -0.035750 0.026299 -0.001500
v -0.035000 -0.026500 -0.001500
v -0.036061 -0.026061 -0.001500
v -0.036061 0.026061 -0.001500
v -0.035000 0.023500 -0.001500
v -0.035000 -0.023500 -0.001500
v -0.034612 0.023551 -0.001500
v -0.034612 -0.023551 -0.001500
v -0.034250 -0.023701 -0.001500
v -0.034250 0.023701 -0.001500
v -0.033939 -0.023939 -0.001500
v -0.034250 -0.026299 -0.001500
v -0.034250 0.026299 -0.001500
v -0.034612 -0.026449 -0.001500
v -0.034612 0.026449 -0.001500
v -0.033939 0.023939 -0.001500
v -0.033701 -0.024250 -0.001500
v -0.033701 0.024250 -0.001500
v -0.033701 0.025750 -0.001500
v -0.033500 0.025000 -0.001500
v -0.033500 -0.025000 -0.001500
v -0.033551 -0.025388 -0.001500
v -0.033551 -0.024612 -0.001500
v -0.033551 0.024612 -0.001500
v -0.033551 0.025388 -0.001500
v -0.033701 -0.025750 -0.001500
v -0.033939 0.026061 -0.001500
v -0.033939 -0.026061 -0.001500
v -0.035000 0.026500 -0.001500
v -0.036500 -0.025000 0.001500
v -0.036500 0.025000 0.001500
v -0.036449 -0.025388 0.001500
v -0.036449 -0.024612 0.001500
v -0.036449 0.024612 0.001500
v -0.036449 0.025388 0.001500
v -0.036299 -0.025750 0.001500
v -0.036299 -0.024250 0.001500
v -0.036299 0.024250 0.001500
v -0.036299 0.025750 0.001500
v -0.036061 0.023939 0.001500
v -0.036061 -0.023939 0.001500
v -0.035750 -0.023701 0.001500
v -0.035750 0.023701 0.001500
v -0.035388 -0.026449 0.001500
v -0.035388 -0.023551 0.001500
v -0.035388 0.023551 0.001500
v -0.035388 0.026449 0.001500
v -0.035750 -0.026299 0.001500
v -0.035750 0.026299 0.001500
v -0.035000 -0.026500 0.001500
v -0.036061 -0.026061 0.001500
v -0.036061 0.026061 0.001500
v -0.035000 -0.023500 0.001500
v -0.035000 0.023500 0.001500
v -0.034612 -0.026449 0.001500
v -0.034612 -0.023551 0.001500
v -0.034612 0.023551 0.001500
v -0.034250 -0.023701 0.001500
v -0.034250 0.023701 0.001500
v -0.034250 0.026299 0.001500
v -0.034250 -0.026299 0.001500
v -0.034612 0.026449 0.001500
v -0.033701 -0.025750 0.001500
v -0.033701 -0.024250 0.001500
v -0.033701 0.024250 0.001500
v -0.033500 0.025000 0.001500
v -0.033500 -0.025000 0.001500
v -0.033551 -0.025388 0.001500
v -0.033551 -0.024612 0.001500
v -0.033551 0.024612 0.001500
v -0.033551 0.025388 0.001500
v -0.033701 0.025750 0.001500
v -0.033939 0.026061 0.001500
v -0.033939 -0.026061 0.001500
v -0.033939 -0.023939 0.001500
v -0.033939 0.023939 0.001500
v -0.035000 0.026500 0.001500
v 0.033500 -0.025000 0.001500
v 0.033500 0.025000 0.001500
v 0.033551 -0.025388 0.001500
v 0.033551 -0.024612 0.001500
v 0.033551 0.024612 0.001500
v 0.033551 0.025388 0.001500
v 0.033701 -0.024250 0.001500
v 0.033701 0.024250 0.001500
v 0.033701 0.025750 0.001500
v 0.033939 -0.026061 0.001500
v 0.033701 -0.025750 0.001500
v 0.033939 -0.023939 0.001500
v 0.033939 0.023939 0.001500
v 0.034250 -0.026299 0.001500
v 0.034250 -0.023701 0.001500
v 0.034250 0.023701 0.001500
v 0.034612 -0.023551 0.001500
v 0.034612 0.023551 0.001500
v 0.034612 0.026449 0.001500
v 0.034612 -0.026449 0.001500
v 0.034250 0.026299 0.001500
v 0.033939 0.026061 0.001500
v 0.035388 0.023551 0.001500
v 0.035388 -0.023551 0.001500
v 0.035388 -0.026449 0.001500
v 0.035750 -0.023701 0.001500
v 0.035750 0.023701 0.001500
v 0.036061 -0.023939 0.001500
v 0.036061 0.023939 0.001500
v 0.035750 0.026299 0.001500
v 0.035750 -0.026299 0.001500
v 0.035388 0.026449 0.001500
v 0.036299 -0.025750 0.001500
v 0.036299 -0.024250 0.001500
v 0.036299 0.024250 0.001500
v 0.036500 -0.025000 0.001500
v 0.036500 0.025000 0.001500
v 0.036449 -0.025388 0.001500
v 0.036449 -0.024612 0.001500
v 0.036449 0.024612 0.001500
v 0.036449 0.025388 0.001500
v 0.036299 0.025750 0.001500
v 0.036061 0.026061 0.001500
v 0.036061 -0.026061 0.001500
v 0.035000 0.026500 0.001500
v 0.035000 -0.026500 0.001500
v 0.035000 -0.023500 0.001500
v 0.035000 0.023500 0.001500
vn -1.0000 -0.0000 -0.0000
vn -0.0000 1.0000 -0.0000
vn 1.0000 -0.0000 -0.0000
vn -0.0000 -1.0000 -0.0000
vn -0.0000 -0.0000 -1.0000
vn -0.0000 -0.0000 1.0000
vn -0.1305 -0.9914 -0.0000
vn -0.3827 -0.9239 -0.0000
vn -0.6088 -0.7934 -0.0000
vn -0.7934 -0.6088 -0.0000
vn -0.9239 -0.3827 -0.0000
vn -0.9914 -0.1305 -0.0000
vn -0.9914 0.1305 -0.0000
vn -0.9239 0.3827 -0.0000
vn -0.7934 0.6088 -0.0000
vn -0.6088 0.7934 -0.0000
vn -0.3827 0.9239 -0.0000
vn -0.1305 0.9914 -0.0000
vn 0.1305 0.9914 -0.0000
vn 0.3827 0.9239 -0.0000
vn 0.6088 0.7934 -0.0000
vn 0.7934 0.6088 -0.0000
vn 0.9239 0.3827 -0.0000
vn 0.9914 0.1305 -0.0000
vn 0.9914 -0.1305 -0.0000
vn 0.9239 -0.3827 -0.0000
vn 0.7934 -0.6088 -0.0000
vn 0.6088 -0.7934 -0.0000
vn 0.3827 -0.9239 -0.0000
vn 0.1305 -0.9914 -0.0000
s 0
usemtl DWLRP_Plate
f 1//1 2//1 4//1 3//1
f 3//2 4//2 8//2 7//2
f 7//3 8//3 6//3 5//3
f 5//4 6//4 2//4 1//4
f 53//5 7//5 5//5 54//5 43//5 49//5 47//5 50//5 44//5 38//5 36//5 34//5 26//5 32//5 33//5 37//5 39//5 45//5 51//5 48//5 52//5 46//5
f 54//5 5//5 1//5 78//5 75//5 73//5 77//5 89//5 87//5 103//5 101//5 97//5 96//5 98//5 92//5 86//5 84//5 83//5 81//5 80//5 82//5 85//5 91//5 93//5 99//5 95//5 100//5 94//5 102//5 88//5 90//5 104//5 74//5 76//5 79//5 3//5 7//5 53//5 42//5 35//5 55//5 28//5 30//5 31//5 18//5 14//5 10//5 13//5 16//5 20//5 22//5 25//5 32//5 26//5 24//5 23//5 21//5 17//5 12//5 9//5 11//5 15//5 19//5 29//5 27//5 56//5 41//5 40//5
f 78//5 1//5 3//5 79//5 66//5 62//5 58//5 61//5 63//5 67//5 70//5 72//5 80//5 81//5 71//5 69//5 68//5 65//5 60//5 57//5 59//5 64//5
f 4//6 2//6 126//6 111//6 107//6 105//6 108//6 112//6 116//6 117//6 120//6 128//6 129//6 121//6 118//6 115//6 113//6 109//6 106//6 110//6 114//6 127//6
f 6//6 8//6 195//6 194//6 193//6 189//6 192//6 187//6 181//6 179//6 175//6 200//6 199//6 176//6 178//6 180//6 186//6 191//6 188//6 190//6 185//6 196//6
f 195//6 8//6 4//6 127//6 124//6 122//6 152//6 137//6 135//6 148//6 147//6 146//6 141//6 145//6 140//6 151//6 134//6 132//6 129//6 128//6 131//6 133//6 150//6 139//6 144//6 142//6 143//6 138//6 149//6 136//6 130//6 125//6 119//6 123//6 126//6 2//6 6//6 196//6 183//6 177//6 198//6 172//6 166//6 162//6 163//6 155//6 153//6 156//6 159//6 164//6 167//6 169//6 199//6 200//6 170//6 168//6 165//6 160//6 157//6 154//6 158//6 161//6 174//6 173//6 171//6 197//6 184//6 182//6
f 128//7 81//7 83//7 131//7
f 131//8 83//8 84//8 133//8
f 133//9 84//9 86//9 150//9
f 86//10 92//10 139//10 150//10
f 92//11 98//11 144//11 139//11
f 98//12 96//12 142//12 144//12
f 96//13 97//13 143//13 142//13
f 97//14 101//14 138//14 143//14
f 101//15 103//15 149//15 138//15
f 103//16 87//16 136//16 149//16
f 87//17 89//17 130//17 136//17
f 89//18 77//18 125//18 130//18
f 77//19 73//19 119//19 125//19
f 73//20 75//20 123//20 119//20
f 75//21 78//21 126//21 123//21
f 126//22 78//22 64//22 111//22
f 111//23 64//23 59//23 107//23
f 107//24 59//24 57//24 105//24
f 105//25 57//25 60//25 108//25
f 108//26 60//26 65//26 112//26
f 112//27 65//27 68//27 116//27
f 116//28 68//28 69//28 117//28
f 117//29 69//29 71//29 120//29
f 120//30 71//30 81//30 128//30
f 152//7 104//7 90//7 137//7
f 137//8 90//8 88//8 135//8
f 135//9 88//9 102//9 148//9
f 102//10 94//10 147//10 148//10
f 94//11 100//11 146//11 147//11
f 100//12 95//12 141//12 146//12
f 95//13 99//13 145//13 141//13
f 99//14 93//14 140//14 145//14
f 93//15 91//15 151//15 140//15
f 91//16 85//16 134//16 151//16
f 85//17 82//17 132//17 134//17
f 82//18 80//18 129//18 132//18
f 80//19 72//19 121//19 129//19
f 72//20 70//20 118//20 121//20
f 70//21 67//21 115//21 118//21
f 115//22 67//22 63//22 113//22
f 113//23 63//23 61//23 109//23
f 109//24 61//24 58//24 106//24
f 106//25 58//25 62//25 110//25
f 110//26 62//26 66//26 114//26
f 114//27 66//27 79//27 127//27
f 127//28 79//28 76//28 124//28
f 124//29 76//29 74//29 122//29
f 122//30 74//30 104//30 152//30
f 199//7 26//7 34//7 176//7
f 176//8 34//8 36//8 178//8
f 178//9 36//9 38//9 180//9
f 38//10 44//10 186//10 180//10
f 44//11 50//11 191//11 186//11
f 50//12 47//12 188//12 191//12
f 47//13 49//13 190//13 188//13
f 49//14 43//14 185//14 190//14
f 43//15 54//15 196//15 185//15
f 54//16 40//16 183//16 196//16
f 40//17 41//17 177//17 183//17
f 41//18 56//18 198//18 177//18
f 56//19 27//19 172//19 198//19
f 27//20 29//20 166//20 172//20
f 29//21 19//21 162//21 166//21
f 162//22 19//22 15//22 163//22
f 163//23 15//23 11//23 155//23
f 155//24 11//24 9//24 153//24
f 153//25 9//25 12//25 156//25
f 156//26 12//26 17//26 159//26
f 159//27 17//27 21//27 164//27
f 164//28 21//28 23//28 167//28
f 167//29 23//29 24//29 169//29
f 169//30 24//30 26//30 199//30
f 197//7 55//7 35//7 184//7
f 184//8 35//8 42//8 182//8
f 182//9 42//9 53//9 195//9
f 53//10 46//10 194//10 195//10
f 46//11 52//11 193//11 194//11
f 52//12 48//12 189//12 193//12
f 48//13 51//13 192//13 189//13
f 51//14 45//14 187//14 192//14
f 45//15 39//15 181//15 187//15
f 39//16 37//16 179//16 181//16
f 37//17 33//17 175//17 179//17
f 33//18 32//18 200//18 175//18
f 32//19 25//19 170//19 200//19
f 25//20 22//20 168//20 170//20
f 22//21 20//21 165//21 168//21
f 165//22 20//22 16//22 160//22
f 160//23 16//23 13//23 157//23
f 157//24 13//24 10//24 154//24
f 154//25 10//25 14//25 158//25
f 158//26 14//26 18//26 161//26
f 161//27 18//27 31//27 174//27
f 174//28 31//28 30//28 173//28
f 173//29 30//29 28//29 171//29
f 171//30 28//30 55//30 197//30
o DWLRP_Standoff_0
v -0.035000 -0.022500 0.001500
v -0.035000 -0.022500 0.019500
v -0.034043 -0.022690 0.001500
v -0.034043 -0.022690 0.019500
v -0.033232 -0.023232 0.001500
v -0.033232 -0.023232 0.019500
v -0.032690 -0.024043 0.001500
v -0.032690 -0.024043 0.019500
v -0.032500 -0.025000 0.001500
v -0.032500 -0.025000 0.019500
v -0.032690 -0.025957 0.001500
v -0.032690 -0.025957 0.019500
v -0.033232 -0.026768 0.001500
v -0.033232 -0.026768 0.019500
v -0.034043 -0.027310 0.001500
v -0.034043 -0.027310 0.019500
v -0.035000 -0.027500 0.001500
v -0.035000 -0.027500 0.019500
v -0.035957 -0.027310 0.001500
v -0.035957 -0.027310 0.019500
v -0.036768 -0.026768 0.001500
v -0.036768 -0.026768 0.019500
v -0.037310 -0.025957 0.001500
v -0.037310 -0.025957 0.019500
v -0.037500 -0.025000 0.001500
v -0.037500 -0.025000 0.019500
v -0.037310 -0.024043 0.001500
v -0.037310 -0.024043 0.019500
v -0.036768 -0.023232 0.001500
v -0.036768 -0.023232 0.019500
v -0.035957 -0.022690 0.001500
v -0.035957 -0.022690 0.019500
vn 0.1951 0.9808 -0.0000
vn 0.5556 0.8315 -0.0000
vn 0.8315 0.5556 -0.0000
vn 0.9808 0.1951 -0.0000
vn 0.9808 -0.1951 -0.0000
vn 0.8315 -0.5556 -0.0000
vn 0.5556 -0.8315 -0.0000
vn 0.1951 -0.9808 -0.0000
vn -0.1951 -0.9808 -0.0000
vn -0.5556 -0.8315 -0.0000
vn -0.8315 -0.5556 -0.0000
vn -0.9808 -0.1951 -0.0000
vn -0.9808 0.1951 -0.0000
vn -0.8315 0.5556 -0.0000
vn -0.0000 -0.0000 1.0000
vn -0.5556 0.8315 -0.0000
vn -0.1951 0.9808 -0.0000
vn -0.0000 -0.0000 -1.0000
s 0
usemtl DWLRP_Metal
f 201//31 202//31 204//31 203//31
f 203//32 204//32 206//32 205//32
f 205//33 206//33 208//33 207//33
f 207//34 208//34 210//34 209//34
f 209//35 210//35 212//35 211//35
f 211//36 212//36 214//36 213//36
f 213//37 214//37 216//37 215//37
f 215//38 216//38 218//38 217//38
f 217//39 218//39 220//39 219//39
f 219//40 220//40 222//40 221//40
f 221//41 222//41 224//41 223//41
f 223//42 224//42 226//42 225//42
f 225//43 226//43 228//43 227//43
f 227//44 228//44 230//44 229//44
f 204//45 202//45 232//45 230//45 228//45 226//45 224//45 222//45 220//45 218//45 216//45 214//45 212//45 210//45 208//45 206//45
f 229//46 230//46 232//46 231//46
f 231//47 232//47 202//47 201//47
f 201//48 203//48 205//48 207//48 209//48 211//48 213//48 215//48 217//48 219//48 221//48 223//48 225//48 227//48 229//48 231//48
o DWLRP_Standoff_1
v 0.035000 -0.022500 0.001500
v 0.035000 -0.022500 0.019500
v 0.035957 -0.022690 0.001500
v 0.035957 -0.022690 0.019500
v 0.036768 -0.023232 0.001500
v 0.036768 -0.023232 0.019500
v 0.037310 -0.024043 0.001500
v 0.037310 -0.024043 0.019500
v 0.037500 -0.025000 0.001500
v 0.037500 -0.025000 0.019500
v 0.037310 -0.025957 0.001500
v 0.037310 -0.025957 0.019500
v 0.036768 -0.026768 0.001500
v 0.036768 -0.026768 0.019500
v 0.035957 -0.027310 0.001500
v 0.035957 -0.027310 0.019500
v 0.035000 -0.027500 0.001500
v 0.035000 -0.027500 0.019500
v 0.034043 -0.027310 0.001500
v 0.034043 -0.027310 0.019500
v 0.033232 -0.026768 0.001500
v 0.033232 -0.026768 0.019500
v 0.032690 -0.025957 0.001500
v 0.032690 -0.025957 0.019500
v 0.032500 -0.025000 0.001500
v 0.032500 -0.025000 0.019500
v 0.032690 -0.024043 0.001500
v 0.032690 -0.024043 0.019500
v 0.033232 -0.023232 0.001500
v 0.033232 -0.023232 0.019500
v 0.034043 -0.022690 0.001500
v 0.034043 -0.022690 0.019500
vn 0.1951 0.9808 -0.0000
vn 0.5556 0.8315 -0.0000
vn 0.8315 0.5556 -0.0000
vn 0.9808 0.1951 -0.0000
vn 0.9808 -0.1951 -0.0000
vn 0.8315 -0.5556 -0.0000
vn 0.5556 -0.8315 -0.0000
vn 0.1951 -0.9808 -0.0000
vn -0.1951 -0.9808 -0.0000
vn -0.5556 -0.8315 -0.0000
vn -0.8315 -0.5556 -0.0000
vn -0.9808 -0.1951 -0.0000
vn -0.9808 0.1951 -0.0000
vn -0.8315 0.5556 -0.0000
vn -0.0000 -0.0000 1.0000
vn -0.5556 0.8315 -0.0000
vn -0.1951 0.9808 -0.0000
vn -0.0000 -0.0000 -1.0000
s 0
usemtl DWLRP_Metal
f 233//49 234//49 236//49 235//49
f 235//50 236//50 238//50 237//50
f 237//51 238//51 240//51 239//51
f 239//52 240//52 242//52 241//52
f 241//53 242//53 244//53 243//53
f 243//54 244//54 246//54 245//54
f 245//55 246//55 248//55 247//55
f 247//56 248//56 250//56 249//56
f 249//57 250//57 252//57 251//57
f 251//58 252//58 254//58 253//58
f 253//59 254//59 256//59 255//59
f 255//60 256//60 258//60 257//60
f 257//61 258//61 260//61 259//61
f 259//62 260//62 262//62 261//62
f 236//63 234//63 264//63 262//63 260//63 258//63 256//63 254//63 252//63 250//63 248//63 246//63 244//63 242//63 240//63 238//63
f 261//64 262//64 264//64 263//64
f 263//65 264//65 234//65 233//65
f 233//66 235//66 237//66 239//66 241//66 243//66 245//66 247//66 249//66 251//66 253//66 255//66 257//66 259//66 261//66 263//66
o DWLRP_Standoff_2
v -0.035000 0.027500 0.001500
v -0.035000 0.027500 0.019500
v -0.034043 0.027310 0.001500
v -0.034043 0.027310 0.019500
v -0.033232 0.026768 0.001500
v -0.033232 0.026768 0.019500
v -0.032690 0.025957 0.001500
v -0.032690 0.025957 0.019500
v -0.032500 0.025000 0.001500
v -0.032500 0.025000 0.019500
v -0.032690 0.024043 0.001500
v -0.032690 0.024043 0.019500
v -0.033232 0.023232 0.001500
v -0.033232 0.023232 0.019500
v -0.034043 0.022690 0.001500
v -0.034043 0.022690 0.019500
v -0.035000 0.022500 0.001500
v -0.035000 0.022500 0.019500
v -0.035957 0.022690 0.001500
v -0.035957 0.022690 0.019500
v -0.036768 0.023232 0.001500
v -0.036768 0.023232 0.019500
v -0.037310 0.024043 0.001500
v -0.037310 0.024043 0.019500
v -0.037500 0.025000 0.001500
v -0.037500 0.025000 0.019500
v -0.037310 0.025957 0.001500
v -0.037310 0.025957 0.019500
v -0.036768 0.026768 0.001500
v -0.036768 0.026768 0.019500
v -0.035957 0.027310 0.001500
v -0.035957 0.027310 0.019500
vn 0.1951 0.9808 -0.0000
vn 0.5556 0.8315 -0.0000
vn 0.8315 0.5556 -0.0000
vn 0.9808 0.1951 -0.0000
vn 0.9808 -0.1951 -0.0000
vn 0.8315 -0.5556 -0.0000
vn 0.5556 -0.8315 -0.0000
vn 0.1951 -0.9808 -0.0000
vn -0.1951 -0.9808 -0.0000
vn -0.5556 -0.8315 -0.0000
vn -0.8315 -0.5556 -0.0000
vn -0.9808 -0.1951 -0.0000
vn -0.9808 0.1951 -0.0000
vn -0.8315 0.5556 -0.0000
vn -0.0000 -0.0000 1.0000
vn -0.5556 0.8315 -0.0000
vn -0.1951 0.9808 -0.0000
vn -0.0000 -0.0000 -1.0000
s 0
usemtl DWLRP_Metal
f 265//67 266//67 268//67 267//67
f 267//68 268//68 270//68 269//68
f 269//69 270//69 272//69 271//69
f 271//70 272//70 274//70 273//70
f 273//71 274//71 276//71 275//71
f 275//72 276//72 278//72 277//72
f 277//73 278//73 280//73 279//73
f 279//74 280//74 282//74 281//74
f 281//75 282//75 284//75 283//75
f 283//76 284//76 286//76 285//76
f 285//77 286//77 288//77 287//77
f 287//78 288//78 290//78 289//78
f 289//79 290//79 292//79 291//79
f 291//80 292//80 294//80 293//80
f 268//81 266//81 296//81 294//81 292//81 290//81 288//81 286//81 284//81 282//81 280//81 278//81 276//81 274//81 272//81 270//81
f 293//82 294//82 296//82 295//82
f 295//83 296//83 266//83 265//83
f 265//84 267//84 269//84 271//84 273//84 275//84 277//84 279//84 281//84 283//84 285//84 287//84 289//84 291//84 293//84 295//84
o DWLRP_Standoff_3
v 0.035000 0.027500 0.001500
v 0.035000 0.027500 0.019500
v 0.035957 0.027310 0.001500
v 0.035957 0.027310 0.019500
v 0.036768 0.026768 0.001500
v 0.036768 0.026768 0.019500
v 0.037310 0.025957 0.001500
v 0.037310 0.025957 0.019500
v 0.037500 0.025000 0.001500
v 0.037500 0.025000 0.019500
v 0.037310 0.024043 0.001500
v 0.037310 0.024043 0.019500
v 0.036768 0.023232 0.001500
v 0.036768 0.023232 0.019500
v 0.035957 0.022690 0.001500
v 0.035957 0.022690 0.019500
v 0.035000 0.022500 0.001500
v 0.035000 0.022500 0.019500
v 0.034043 0.022690 0.001500
v 0.034043 0.022690 0.019500
v 0.033232 0.023232 0.001500
v 0.033232 0.023232 0.019500
v 0.032690 0.024043 0.001500
v 0.032690 0.024043 0.019500
v 0.032500 0.025000 0.001500
v 0.032500 0.025000 0.019500
v 0.032690 0.025957 0.001500
v 0.032690 0.025957 0.019500
v 0.033232 0.026768 0.001500
v 0.033232 0.026768 0.019500
v 0.034043 0.027310 0.001500
v 0.034043 0.027310 0.019500
vn 0.1951 0.9808 -0.0000
vn 0.5556 0.8315 -0.0000
vn 0.8315 0.5556 -0.0000
vn 0.9808 0.1951 -0.0000
vn 0.9808 -0.1951 -0.0000
vn 0.8315 -0.5556 -0.0000
vn 0.5556 -0.8315 -0.0000
vn 0.1951 -0.9808 -0.0000
vn -0.1951 -0.9808 -0.0000
vn -0.5556 -0.8315 -0.0000
vn -0.8315 -0.5556 -0.0000
vn -0.9808 -0.1951 -0.0000
vn -0.9808 0.1951 -0.0000
vn -0.8315 0.5556 -0.0000
vn -0.0000 -0.0000 1.0000
vn -0.5556 0.8315 -0.0000
vn -0.1951 0.9808 -0.0000
vn -0.0000 -0.0000 -1.0000
s 0
usemtl DWLRP_Metal
f 297//85 298//85 300//85 299//85
f 299//86 300//86 302//86 301//86
f 301//87 302//87 304//87 303//87
f 303//88 304//88 306//88 305//88
f 305//89 306//89 308//89 307//89
f 307//90 308//90 310//90 309//90
f 309//91 310//91 312//91 311//91
f 311//92 312//92 314//92 313//92
f 313//93 314//93 316//93 315//93
f 315//94 316//94 318//94 317//94
f 317//95 318//95 320//95 319//95
f 319//96 320//96 322//96 321//96
f 321//97 322//97 324//97 323//97
f 323//98 324//98 326//98 325//98
f 300//99 298//99 328//99 326//99 324//99 322//99 320//99 318//99 316//99 314//99 312//99 310//99 308//99 306//99 304//99 302//99
f 325//100 326//100 328//100 327//100
f 327//101 328//101 298//101 297//101
f 297//102 299//102 301//102 303//102 305//102 307//102 309//102 311//102 313//102 315//102 317//102 319//102 321//102 323//102 325//102 327//102
o DWLRP_Battery
v -0.022500 -0.012000 0.002500
v -0.022500 -0.012000 0.012500
v -0.022500 0.012000 0.002500
v -0.022500 0.012000 0.012500
v 0.022500 -0.012000 0.002500
v 0.022500 -0.012000 0.012500
v 0.022500 0.012000 0.002500
v 0.022500 0.012000 0.012500
vn -1.0000 -0.0000 -0.0000
vn -0.0000 1.0000 -0.0000
vn 1.0000 -0.0000 -0.0000
vn -0.0000 -1.0000 -0.0000
vn -0.0000 -0.0000 -1.0000
vn -0.0000 -0.0000 1.0000
s 0
usemtl DWLRP_Black
f 329//103 330//103 332//103 331//103
f 331//104 332//104 336//104 335//104
f 335//105 336//105 334//105 333//105
f 333//106 334//106 330//106 329//106
f 331//107 335//107 333//107 329//107
f 336//108 332//108 330//108 334//108
o DWLRP_UpperDeck
v -0.039000 -0.026000 0.019500
v -0.039000 -0.026000 0.022500
v -0.039000 0.026000 0.019500
v -0.039000 0.026000 0.022500
v 0.039000 -0.026000 0.019500
v 0.039000 -0.026000 0.022500
v 0.039000 0.026000 0.019500
v 0.039000 0.026000 0.022500
v -0.036107 0.026000 0.022500
v -0.033893 0.026000 0.022500
v 0.033893 0.026000 0.022500
v 0.036107 0.026000 0.022500
v -0.033893 0.026000 0.019500
v -0.036107 0.026000 0.019500
v 0.033893 0.026000 0.019500
v 0.036107 0.026000 0.019500
v -0.033893 -0.026000 0.022500
v -0.036107 -0.026000 0.022500
v 0.036107 -0.026000 0.022500
v 0.033893 -0.026000 0.022500
v -0.036107 -0.026000 0.019500
v 0.036107 -0.026000 0.019500
v 0.033893 -0.026000 0.019500
v -0.033893 -0.026000 0.019500
v -0.036449 0.024612 0.019500
v -0.036500 0.025000 0.019500
v -0.036299 0.024250 0.019500
v -0.036449 0.025388 0.019500
v -0.036299 0.025750 0.019500
v -0.034612 0.023551 0.019500
v -0.035000 0.023500 0.019500
v -0.033939 0.023939 0.019500
v -0.033701 0.024250 0.019500
v -0.033701 0.025750 0.019500
v -0.033500 0.025000 0.019500
v 0.033500 0.025000 0.019500
v 0.033551 0.025388 0.019500
v -0.033551 0.025388 0.019500
v -0.033551 0.024612 0.019500
v 0.033551 0.024612 0.019500
v -0.034250 0.023701 0.019500
v 0.033701 0.024250 0.019500
v 0.034250 0.023701 0.019500
v 0.033939 0.023939 0.019500
v 0.035000 0.023500 0.019500
v 0.034612 0.023551 0.019500
v 0.035750 -0.023701 0.019500
v 0.035388 0.023551 0.019500
v 0.035388 -0.023551 0.019500
v 0.036061 -0.023939 0.019500
v 0.036061 0.023939 0.019500
v 0.035750 0.023701 0.019500
v 0.036500 0.025000 0.019500
v 0.036449 0.025388 0.019500
v 0.036299 0.024250 0.019500
v 0.036449 0.024612 0.019500
v 0.036299 0.025750 0.019500
v 0.033701 0.025750 0.019500
v -0.036500 -0.025000 0.019500
v -0.036299 -0.025750 0.019500
v -0.036449 -0.025388 0.019500
v -0.036449 -0.024612 0.019500
v -0.036061 0.023939 0.019500
v -0.036061 -0.023939 0.019500
v -0.036299 -0.024250 0.019500
v -0.035388 -0.023551 0.019500
v -0.035750 0.023701 0.019500
v -0.035750 -0.023701 0.019500
v -0.035000 -0.023500 0.019500
v -0.035388 0.023551 0.019500
v -0.034250 -0.023701 0.019500
v -0.033939 -0.023939 0.019500
v -0.034612 -0.023551 0.019500
v -0.033701 -0.024250 0.019500
v -0.033551 -0.024612 0.019500
v 0.033500 -0.025000 0.019500
v -0.033500 -0.025000 0.019500
v -0.033551 -0.025388 0.019500
v 0.033701 -0.025750 0.019500
v 0.033701 -0.024250 0.019500
v 0.033551 -0.025388 0.019500
v 0.033551 -0.024612 0.019500
v 0.034612 -0.023551 0.019500
v 0.034250 -0.023701 0.019500
v 0.035000 -0.023500 0.019500
v 0.036299 -0.024250 0.019500
v 0.036500 -0.025000 0.019500
v 0.036449 -0.025388 0.019500
v 0.036449 -0.024612 0.019500
v 0.036299 -0.025750 0.019500
v 0.033939 -0.023939 0.019500
v -0.033701 -0.025750 0.019500
v -0.036500 0.025000 0.022500
v -0.036299 0.024250 0.022500
v -0.036449 0.024612 0.022500
v -0.036449 0.025388 0.022500
v -0.036061 -0.023939 0.022500
v -0.036061 0.023939 0.022500
v -0.036299 0.025750 0.022500
v -0.035750 -0.023701 0.022500
v -0.035750 0.023701 0.022500
v -0.035000 0.023500 0.022500
v -0.035388 0.023551 0.022500
v -0.035388 -0.023551 0.022500
v -0.034250 0.023701 0.022500
v -0.033939 0.023939 0.022500
v -0.033701 0.024250 0.022500
v -0.034612 0.023551 0.022500
v -0.033551 0.024612 0.022500
v 0.033500 0.025000 0.022500
v -0.033500 0.025000 0.022500
v -0.033551 0.025388 0.022500
v 0.033701 0.024250 0.022500
v 0.033701 0.025750 0.022500
v 0.033551 0.024612 0.022500
v 0.033551 0.025388 0.022500
v 0.034612 0.023551 0.022500
v 0.034250 0.023701 0.022500
v 0.035000 0.023500 0.022500
v 0.036299 0.024250 0.022500
v 0.036500 0.025000 0.022500
v 0.036449 0.024612 0.022500
v 0.036449 0.025388 0.022500
v 0.036299 0.025750 0.022500
v 0.033939 0.023939 0.022500
v -0.033701 0.025750 0.022500
v -0.036449 -0.025388 0.022500
v -0.036500 -0.025000 0.022500
v -0.036299 -0.025750 0.022500
v -0.036449 -0.024612 0.022500
v -0.036299 -0.024250 0.022500
v -0.034612 -0.023551 0.022500
v -0.035000 -0.023500 0.022500
v -0.033939 -0.023939 0.022500
v -0.033701 -0.025750 0.022500
v -0.033701 -0.024250 0.022500
v -0.033500 -0.025000 0.022500
v 0.033500 -0.025000 0.022500
v 0.033551 -0.025388 0.022500
v -0.033551 -0.024612 0.022500
v 0.033551 -0.024612 0.022500
v -0.033551 -0.025388 0.022500
v -0.034250 -0.023701 0.022500
v 0.033701 -0.024250 0.022500
v 0.034250 -0.023701 0.022500
v 0.033939 -0.023939 0.022500
v 0.035000 -0.023500 0.022500
v 0.034612 -0.023551 0.022500
v 0.035388 -0.023551 0.022500
v 0.035388 0.023551 0.022500
v 0.036061 -0.023939 0.022500
v 0.036061 0.023939 0.022500
v 0.036500 -0.025000 0.022500
v 0.036449 -0.024612 0.022500
v 0.036299 -0.025750 0.022500
v 0.036449 -0.025388 0.022500
v 0.036299 -0.024250 0.022500
v 0.035750 -0.023701 0.022500
v 0.035750 0.023701 0.022500
v 0.033701 -0.025750 0.022500
vn -1.0000 -0.0000 -0.0000
vn -0.0000 1.0000 -0.0000
vn 1.0000 -0.0000 -0.0000
vn -0.0000 -1.0000 -0.0000
vn -0.0000 -0.0000 -1.0000
vn -0.0000 -0.0000 1.0000
vn -0.1305 -0.9914 -0.0000
vn -0.3827 -0.9239 -0.0000
vn -0.6088 -0.7934 -0.0000
vn -0.7934 -0.6088 -0.0000
vn -0.9239 -0.3827 -0.0000
vn -0.9914 -0.1305 -0.0000
vn -0.9914 0.1305 -0.0000
vn -0.9239 0.3827 -0.0000
vn -0.7934 0.6088 -0.0000
vn 0.7933 0.6088 -0.0000
vn 0.9239 0.3827 -0.0000
vn 0.9914 0.1305 -0.0000
vn 0.9914 -0.1305 -0.0000
vn 0.9239 -0.3827 -0.0000
vn 0.7934 -0.6088 -0.0000
vn 0.6088 -0.7934 -0.0000
vn 0.3827 -0.9239 -0.0000
vn 0.1305 -0.9914 -0.0000
vn -0.6088 0.7934 -0.0000
vn -0.3827 0.9239 -0.0000
vn -0.1305 0.9914 -0.0000
vn 0.1305 0.9914 -0.0000
vn 0.3827 0.9239 -0.0000
vn 0.6088 0.7934 -0.0000
vn 0.7934 0.6088 -0.0000
vn 0.7933 -0.6088 -0.0000
vn -0.7933 0.6088 -0.0000
vn -0.7933 -0.6088 -0.0000
s 0
usemtl DWLRP_PCB
f 337//109 338//109 340//109 339//109
f 348//110 344//110 343//110 352//110
f 339//110 340//110 345//110 350//110
f 346//110 347//110 351//110 349//110
f 343//111 344//111 342//111 341//111
f 338//112 337//112 357//112 354//112
f 358//112 341//112 342//112 355//112
f 359//112 356//112 353//112 360//112
f 357//113 337//113 339//113 350//113 365//113 364//113 362//113 361//113 363//113 399//113 403//113 406//113 367//113 366//113 377//113 368//113 369//113 375//113 371//113 374//113 370//113 349//113 351//113 394//113 373//113 372//113 376//113 378//113 380//113 379//113 382//113 381//113 384//113 388//113 387//113 391//113 392//113 389//113 390//113 393//113 352//113 343//113 341//113 358//113 426//113 424//113 423//113 425//113 422//113 386//113 383//113 385//113 421//113 419//113 420//113 427//113 416//113 418//113 412//113 417//113 415//113 359//113 360//113 428//113 414//113 413//113 411//113 410//113 408//113 407//113 409//113 405//113 402//113 404//113 400//113 401//113 398//113 395//113 397//113 396//113
f 355//114 342//114 344//114 348//114 460//114 459//114 457//114 458//114 456//114 488//114 495//114 486//114 455//114 453//114 454//114 461//114 449//114 451//114 446//114 452//114 450//114 347//114 346//114 462//114 448//114 447//114 445//114 443//114 442//114 441//114 444//114 438//114 439//114 437//114 434//114 430//114 431//114 429//114 432//114 435//114 345//114 340//114 338//114 354//114 465//114 463//114 464//114 466//114 467//114 433//114 436//114 440//114 469//114 468//114 479//114 470//114 472//114 476//114 473//114 478//114 471//114 353//114 356//114 496//114 475//114 474//114 477//114 480//114 482//114 481//114 484//114 483//114 485//114 494//114 487//114 493//114 490//114 489//114 492//114 491//114
f 469//115 405//115 409//115 468//115
f 468//116 409//116 407//116 479//116
f 479//117 407//117 408//117 470//117
f 408//118 410//118 472//118 470//118
f 410//119 411//119 476//119 472//119
f 411//120 413//120 473//120 476//120
f 413//121 414//121 478//121 473//121
f 414//122 428//122 471//122 478//122
f 353//123 471//123 428//123 360//123
f 354//124 357//124 396//124 465//124
f 465//125 396//125 397//125 463//125
f 463//126 397//126 395//126 464//126
f 464//127 395//127 398//127 466//127
f 466//128 398//128 401//128 467//128
f 467//129 401//129 400//129 433//129
f 433//130 400//130 404//130 436//130
f 436//131 404//131 402//131 440//131
f 440//132 402//132 405//132 469//132
f 349//118 370//118 462//118 346//118
f 370//119 374//119 448//119 462//119
f 374//120 371//120 447//120 448//120
f 371//121 375//121 445//121 447//121
f 375//122 369//122 443//122 445//122
f 369//123 368//123 442//123 443//123
f 368//133 377//133 441//133 442//133
f 377//134 366//134 444//134 441//134
f 366//135 367//135 438//135 444//135
f 367//136 406//136 439//136 438//136
f 406//137 403//137 437//137 439//137
f 403//138 399//138 434//138 437//138
f 434//139 399//139 363//139 430//139
f 430//125 363//125 361//125 431//125
f 431//126 361//126 362//126 429//126
f 429//127 362//127 364//127 432//127
f 432//128 364//128 365//128 435//128
f 350//140 345//140 435//140 365//140
f 483//115 421//115 385//115 485//115
f 485//116 385//116 383//116 494//116
f 494//117 383//117 386//117 487//117
f 386//118 422//118 493//118 487//118
f 422//119 425//119 490//119 493//119
f 425//120 423//120 489//120 490//120
f 423//121 424//121 492//121 489//121
f 424//122 426//122 491//122 492//122
f 355//141 491//141 426//141 358//141
f 356//139 359//139 415//139 496//139
f 496//125 415//125 417//125 475//125
f 475//126 417//126 412//126 474//126
f 474//127 412//127 418//127 477//127
f 477//128 418//128 416//128 480//128
f 480//129 416//129 427//129 482//129
f 482//130 427//130 420//130 481//130
f 481//131 420//131 419//131 484//131
f 484//132 419//132 421//132 483//132
f 352//142 393//142 460//142 348//142
f 393//119 390//119 459//119 460//119
f 390//120 389//120 457//120 459//120
f 389//121 392//121 458//121 457//121
f 392//122 391//122 456//122 458//122
f 391//123 387//123 488//123 456//123
f 387//133 388//133 495//133 488//133
f 388//134 384//134 486//134 495//134
f 384//135 381//135 455//135 486//135
f 381//136 382//136 453//136 455//136
f 382//137 379//137 454//137 453//137
f 379//138 380//138 461//138 454//138
f 461//139 380//139 378//139 449//139
f 449//125 378//125 376//125 451//125
f 451//126 376//126 372//126 446//126
f 446//127 372//127 373//127 452//127
f 452//128 373//128 394//128 450//128
f 351//129 347//129 450//129 394//129
o DWLRP_ATOM_S3
v -0.012000 -0.012000 0.022500
v 0.009500 -0.004000 0.023500
v -0.012000 -0.012000 0.036100
v 0.009500 -0.004000 0.027500
v -0.012000 0.012000 0.022500
v 0.009500 0.004000 0.023500
v -0.012000 0.012000 0.036100
v 0.009500 0.004000 0.027500
v 0.012000 -0.012000 0.022500
v 0.012000 -0.012000 0.036100
v 0.012000 0.012000 0.022500
v 0.012000 0.012000 0.036100
v 0.012000 0.004000 0.027500
v 0.012000 -0.004000 0.027500
v 0.012000 -0.004000 0.023500
v 0.012000 0.004000 0.023500
vn -1.0000 -0.0000 -0.0000
vn -0.0000 1.0000 -0.0000
vn 1.0000 -0.0000 -0.0000
vn -0.0000 -1.0000 -0.0000
vn -0.0000 -0.0000 -1.0000
vn -0.0000 -0.0000 1.0000
s 0
usemtl DWLRP_White
f 497//143 499//143 503//143 501//143
f 501//144 503//144 508//144 507//144
f 511//145 505//145 507//145 512//145
f 507//145 508//145 506//145 505//145 511//145 510//145 509//145 512//145
f 505//146 506//146 499//146 497//146
f 501//147 507//147 505//147 497//147
f 508//148 503//148 499//148 506//148
f 498//145 502//145 504//145 500//145
f 509//146 504//146 502//146 512//146
f 511//144 498//144 500//144 510//144
f 502//148 498//148 511//148 512//148
f 500//147 504//147 509//147 510//147
o DWLRP_RearExtension
v -0.065000 -0.038000 0.001500
v -0.065000 -0.038000 0.029500
v -0.065000 -0.035000 0.001500
v -0.065000 -0.035000 0.029500
v 0.065000 -0.038000 0.001500
v 0.065000 -0.038000 0.029500
v 0.065000 -0.035000 0.001500
v 0.065000 -0.035000 0.029500
vn -1.0000 -0.0000 -0.0000
vn -0.0000 1.0000 -0.0000
vn 1.0000 -0.0000 -0.0000
vn -0.0000 -1.0000 -0.0000
vn -0.0000 -0.0000 -1.0000
vn -0.0000 -0.0000 1.0000
s 0
usemtl DWLRP_Plate
f 513//149 514//149 516//149 515//149
f 515//150 516//150 520//150 519//150
f 519//151 520//151 518//151 517//151
f 517//152 518//152 514//152 513//152
f 515//153 519//153 517//153 513//153
f 520//154 516//154 514//154 518//154
o DWLRP_R_HipKnuckleFront
v 0.048750 -0.031500 0.020000
v 0.051250 -0.031500 0.020000
v 0.048750 -0.033000 0.017402
v 0.051250 -0.033000 0.017402
v 0.048750 -0.036000 0.017402
v 0.051250 -0.036000 0.017402
v 0.048750 -0.037500 0.020000
v 0.051250 -0.037500 0.020000
v 0.048750 -0.036000 0.022598
v 0.051250 -0.036000 0.022598
v 0.048750 -0.033000 0.022598
v 0.051250 -0.033000 0.022598
vn -0.0000 0.8660 -0.5000
vn -0.0000 -0.0000 -1.0000
vn -0.0000 -0.8660 -0.5000
vn -0.0000 -0.8660 0.5000
vn 1.0000 -0.0000 -0.0000
vn -0.0000 -0.0000 1.0000
vn -0.0000 0.8660 0.5000
vn -1.0000 -0.0000 -0.0000
s 0
usemtl DWLRP_Metal
f 521//155 522//155 524//155 523//155
f 523//156 524//156 526//156 525//156
f 525//157 526//157 528//157 527//157
f 527//158 528//158 530//158 529//158
f 524//159 522//159 532//159 530//159 528//159 526//159
f 529//160 530//160 532//160 531//160
f 531//161 532//161 522//161 521//161
f 521//162 523//162 525//162 527//162 529//162 531//162
o DWLRP_R_HipKnuckleBack
v 0.048750 -0.038500 0.020000
v 0.051250 -0.038500 0.020000
v 0.048750 -0.040000 0.017402
v 0.051250 -0.040000 0.017402
v 0.048750 -0.043000 0.017402
v 0.051250 -0.043000 0.017402
v 0.048750 -0.044500 0.020000
v 0.051250 -0.044500 0.020000
v 0.048750 -0.043000 0.022598
v 0.051250 -0.043000 0.022598
v 0.048750 -0.040000 0.022598
v 0.051250 -0.040000 0.022598
vn -0.0000 0.8660 -0.5000
vn -0.0000 -0.0000 -1.0000
vn -0.0000 -0.8660 -0.5000
vn -0.0000 -0.8660 0.5000
vn 1.0000 -0.0000 -0.0000
vn -0.0000 -0.0000 1.0000
vn -0.0000 0.8660 0.5000
vn -1.0000 -0.0000 -0.0000
s 0
usemtl DWLRP_Metal
f 533//163 534//163 536//163 535//163
f 535//164 536//164 538//164 537//164
f 537//165 538//165 540//165 539//165
f 539//166 540//166 542//166 541//166
f 536//167 534//167 544//167 542//167 540//167 538//167
f 541//168 542//168 544//168 543//168
f 543//169 544//169 534//169 533//169
f 533//170 535//170 537//170 539//170 541//170 543//170
o DWLRP_L_HipKnuckleFront
v -0.051250 -0.031500 0.020000
v -0.048750 -0.031500 0.020000
v -0.051250 -0.033000 0.017402
v -0.048750 -0.033000 0.017402
v -0.051250 -0.036000 0.017402
v -0.048750 -0.036000 0.017402
v -0.051250 -0.037500 0.020000
v -0.048750 -0.037500 0.020000
v -0.051250 -0.036000 0.022598
v -0.048750 -0.036000 0.022598
v -0.051250 -0.033000 0.022598
v -0.048750 -0.033000 0.022598
vn -0.0000 0.8660 -0.5000
vn -0.0000 -0.0000 -1.0000
vn -0.0000 -0.8660 -0.5000
vn -0.0000 -0.8660 0.5000
vn 1.0000 -0.0000 -0.0000
vn -0.0000 -0.0000 1.0000
vn -0.0000 0.8660 0.5000
vn -1.0000 -0.0000 -0.0000
s 0
usemtl DWLRP_Metal
f 545//171 546//171 548//171 547//171
f 547//172 548//172 550//172 549//172
f 549//173 550//173 552//173 551//173
f 551//174 552//174 554//174 553//174
f 548//175 546//175 556//175 554//175 552//175 550//175
f 553//176 554//176 556//176 555//176
f 555//177 556//177 546//177 545//177
f 545//178 547//178 549//178 551//178 553//178 555//178
o DWLRP_L_HipKnuckleBack
v -0.051250 -0.038500 0.020000
v -0.048750 -0.038500 0.020000
v -0.051250 -0.040000 0.017402
v -0.048750 -0.040000 0.017402
v -0.051250 -0.043000 0.017402
v -0.048750 -0.043000 0.017402
v -0.051250 -0.044500 0.020000
v -0.048750 -0.044500 0.020000
v -0.051250 -0.043000 0.022598
v -0.048750 -0.043000 0.022598
v -0.051250 -0.040000 0.022598
v -0.048750 -0.040000 0.022598
vn -0.0000 0.8660 -0.5000
vn -0.0000 -0.0000 -1.0000
vn -0.0000 -0.8660 -0.5000
vn -0.0000 -0.8660 0.5000
vn 1.0000 -0.0000 -0.0000
vn -0.0000 -0.0000 1.0000
vn -0.0000 0.8660 0.5000
vn -1.0000 -0.0000 -0.0000
s 0
usemtl DWLRP_Metal
f 557//179 558//179 560//179 559//179
f 559//180 560//180 562//180 561//180
f 561//181 562//181 564//181 563//181
f 563//182 564//182 566//182 565//182
f 560//183 558//183 568//183 566//183 564//183 562//183
f 565//184 566//184 568//184 567//184
f 567//185 568//185 558//185 557//185
f 557//186 559//186 561//186 563//186 565//186 567//186
