# Blender 4.3.2
# www.blender.org
mtllib legged_robot_wheel_R.mtl
o DWLRP_R_WheelHub
v -0.008000 0.040000 -0.000000
v -0.006500 -0.001500 -0.036800
v 0.008000 0.040000 0.000000
v 0.006500 -0.001500 -0.036800
v -0.008000 0.039658 -0.005221
v -0.006500 0.001500 -0.036800
v 0.008000 0.039658 -0.005221
v 0.006500 0.001500 -0.036800
v -0.008000 0.038637 -0.010353
v 0.008000 0.038637 -0.010353
v -0.008000 0.036955 -0.015307
v 0.008000 0.036955 -0.015307
v -0.006500 0.010490 -0.034901
v -0.008000 0.034641 -0.020000
v 0.008000 0.034641 -0.020000
v 0.006500 0.010490 -0.034901
v -0.008000 0.031734 -0.024350
v -0.006500 0.013490 -0.034901
v 0.006500 0.013490 -0.034901
v 0.008000 0.031734 -0.024350
v -0.008000 0.028284 -0.028284
v 0.008000 0.028284 -0.028284
v -0.008000 0.024350 -0.031734
v 0.008000 0.024350 -0.031734
v -0.006500 0.021306 -0.029390
v -0.008000 0.020000 -0.034641
v 0.006500 0.021306 -0.029390
v 0.008000 0.020000 -0.034641
v -0.006500 0.024306 -0.029390
v -0.008000 0.015307 -0.036955
v 0.006500 0.024306 -0.029390
v 0.008000 0.015307 -0.036955
v -0.006500 0.021306 -0.033390
v -0.008000 0.010353 -0.038637
v 0.006500 0.021306 -0.033390
v 0.008000 0.010353 -0.038637
v -0.008000 0.005221 -0.039658
v 0.008000 0.005221 -0.039658
v -0.006500 0.029890 -0.020806
v -0.008000 0.000000 -0.040000
v 0.006500 0.029890 -0.020806
v 0.008000 0.000000 -0.040000
v -0.006500 0.032890 -0.020806
v -0.008000 -0.005221 -0.039658
v 0.006500 0.032890 -0.020806
v 0.008000 -0.005221 -0.039658
v -0.006500 0.029890 -0.024806
v -0.008000 -0.010353 -0.038637
v 0.006500 0.029890 -0.024806
v 0.008000 -0.010353 -0.038637
v -0.008000 -0.015307 -0.036955
v 0.008000 -0.015307 -0.036955
v -0.008000 -0.020000 -0.034641
v -0.006500 0.035401 -0.009990
v 0.008000 -0.020000 -0.034641
v 0.006500 0.035401 -0.009990
v -0.006500 0.038401 -0.009990
v -0.008000 -0.024350 -0.031734
v 0.008000 -0.024350 -0.031734
v 0.006500 0.038401 -0.009990
v -0.006500 0.035401 -0.013990
v -0.008000 -0.028284 -0.028284
v 0.008000 -0.028284 -0.028284
v 0.006500 0.035401 -0.013990
v -0.008000 -0.031734 -0.024350
v 0.008000 -0.031734 -0.024350
v -0.008000 -0.034641 -0.020000
v -0.006500 0.037300 0.002000
v 0.008000 -0.034641 -0.020000
v 0.006500 0.037300 0.002000
v -0.008000 -0.036955 -0.015307
v 0.008000 -0.036955 -0.015307
v -0.008000 -0.038637 -0.010353
v -0.006500 0.037300 -0.002000
v 0.008000 -0.038637 -0.010353
v 0.006500 0.037300 -0.002000
v -0.008000 -0.039658 -0.005221
v 0.008000 -0.039658 -0.005221
v -0.006500 0.035401 0.013990
v -0.008000 -0.040000 -0.000000
v 0.006500 0.035401 0.013990
v 0.008000 -0.040000 0.000000
v -0.008000 -0.039658 0.005221
v 0.008000 -0.039658 0.005221
v -0.006500 0.035401 0.009990
v -0.008000 -0.038637 0.010353
v 0.006500 0.035401 0.009990
v 0.008000 -0.038637 0.010353
v -0.008000 -0.036955 0.015307
v -0.006500 0.038401 0.009990
v 0.008000 -0.036955 0.015307
v 0.006500 0.038401 0.009990
v -0.008000 -0.034641 0.020000
v -0.006500 0.029890 0.024806
v 0.008000 -0.034641 0.020000
v 0.006500 0.029890 0.024806
v -0.008000 -0.031734 0.024350
v 0.008000 -0.031734 0.024350
v -0.008000 -0.028284 0.028284
v -0.006500 0.029890 0.020806
v 0.008000 -0.028284 0.028284
v 0.006500 0.029890 0.020806
v -0.008000 -0.024350 0.031734
v -0.006500 0.032890 0.020806
v 0.008000 -0.024350 0.031734
v 0.006500 0.032890 0.020806
v -0.006500 0.021306 0.033390
v -0.008000 -0.020000 0.034641
v 0.006500 0.021306 0.033390
v 0.008000 -0.020000 0.034641
v -0.008000 -0.015307 0.036955
v 0.008000 -0.015307 0.036955
v -0.008000 -0.010353 0.038637
v -0.006500 0.021306 0.029390
v 0.006500 0.021306 0.029390
v 0.008000 -0.010353 0.038637
v -0.008000 -0.005221 0.039658
v -0.006500 0.024306 0.029390
v 0.006500 0.024306 0.029390
v 0.008000 -0.005221 0.039658
v -0.008000 0.000000 0.040000
v 0.008000 0.000000 0.040000
v -0.008000 0.005221 0.039658
v 0.008000 0.005221 0.039658
v -0.006500 0.010490 0.034901
v -0.008000 0.010353 0.038637
v 0.006500 0.010490 0.034901
v 0.008000 0.010353 0.038637
v -0.006500 0.013490 0.034901
v -0.008000 0.015307 0.036955
v 0.006500 0.013490 0.034901
v 0.008000 0.015307 0.036955
v -0.008000 0.020000 0.034641
v 0.008000 0.020000 0.034641
v -0.008000 0.024350 0.031734
v 0.008000 0.024350 0.031734
v -0.008000 0.028284 0.028284
v -0.006500 -0.001500 0.036800
v 0.008000 0.028284 0.028284
v 0.006500 -0.001500 0.036800
v -0.006500 0.001500 0.036800
v -0.008000 0.031734 0.024350
v 0.006500 0.001500 0.036800
v 0.008000 0.031734 0.024350
v -0.008000 0.034641 0.020000
v 0.008000 0.034641 0.020000
v -0.008000 0.036955 0.015307
v 0.008000 0.036955 0.015307
v -0.006500 -0.013490 0.034901
v -0.008000 0.038637 0.010353
v 0.008000 0.038637 0.010353
v 0.006500 -0.013490 0.034901
v -0.006500 -0.010490 0.034901
v -0.008000 0.039658 0.005221
v 0.008000 0.039658 0.005221
v 0.006500 -0.010490 0.034901
v -0.006500 -0.021306 0.033390
v 0.006500 -0.021306 0.033390
v -0.006500 -0.024306 0.029390
v 0.006500 -0.024306 0.029390
v -0.006500 -0.021306 0.029390
v 0.006500 -0.021306 0.029390
v -0.006500 -0.029890 0.024806
v 0.006500 -0.029890 0.024806
v -0.006500 -0.032890 0.020806
v 0.006500 -0.032890 0.020806
v -0.006500 -0.029890 0.020806
v 0.006500 -0.029890 0.020806
v -0.006500 -0.035401 0.013990
v 0.006500 -0.035401 0.013990
v -0.006500 -0.038401 0.009990
v 0.006500 -0.038401 0.009990
v -0.006500 -0.035401 0.009990
v 0.006500 -0.035401 0.009990
v -0.006500 -0.037300 0.002000
v 0.006500 -0.037300 0.002000
v -0.006500 -0.037300 -0.002000
v 0.006500 -0.037300 -0.002000
v -0.006500 -0.038401 -0.009990
v 0.006500 -0.038401 -0.009990
v -0.006500 -0.035401 -0.009990
v 0.006500 -0.035401 -0.009990
v -0.006500 -0.035401 -0.013990
v 0.006500 -0.035401 -0.013990
v -0.006500 -0.032890 -0.020806
v 0.006500 -0.032890 -0.020806
v -0.006500 -0.029890 -0.020806
v 0.006500 -0.029890 -0.020806
v -0.006500 -0.029890 -0.024806
v 0.006500 -0.029890 -0.024806
v -0.006500 -0.024306 -0.029390
v 0.006500 -0.024306 -0.029390
v -0.006500 -0.021306 -0.029390
v 0.006500 -0.021306 -0.029390
v -0.006500 -0.021306 -0.033390
v 0.006500 -0.021306 -0.033390
v -0.006500 -0.013490 -0.034901
v 0.006500 -0.013490 -0.034901
v -0.006500 -0.010490 -0.034901
v 0.006500 -0.010490 -0.034901
v 0.006500 0.039869 -0.002000
v -0.006500 0.040000 -0.000000
v 0.006500 0.040000 0.000000
v -0.006500 0.039869 -0.002000
v 0.006500 0.037402 -0.013990
v 0.006500 0.038401 -0.011048
v -0.006500 0.038401 -0.011048
v -0.006500 0.037402 -0.013990
v 0.006500 0.032890 -0.022621
v -0.006500 0.032890 -0.022621
v 0.006500 0.031734 -0.024350
v -0.006500 0.031734 -0.024350
v 0.006500 0.031335 -0.024806
v -0.006500 0.031335 -0.024806
v 0.006500 0.021872 -0.033390
v -0.006500 0.024306 -0.031764
v 0.006500 0.024306 -0.031764
v -0.006500 0.021872 -0.033390
v 0.006500 0.013490 -0.037572
v -0.006500 0.010490 -0.038590
v 0.006500 0.010490 -0.038590
v -0.006500 0.013490 -0.037572
v 0.006500 0.001500 -0.039902
v -0.006500 0.001500 -0.039902
v -0.006500 0.000000 -0.040000
v 0.006500 0.000000 -0.040000
v 0.006500 -0.001500 -0.039902
v -0.006500 -0.001500 -0.039902
v 0.006500 -0.013490 -0.037572
v -0.006500 -0.010490 -0.038590
v 0.006500 -0.010490 -0.038590
v -0.006500 -0.013490 -0.037572
v 0.006500 -0.021872 -0.033390
v -0.006500 -0.024306 -0.031764
v 0.006500 -0.024306 -0.031764
v -0.006500 -0.021872 -0.033390
v 0.006500 -0.031335 -0.024806
v -0.006500 -0.031335 -0.024806
v -0.006500 -0.031734 -0.024350
v 0.006500 -0.031734 -0.024350
v 0.006500 -0.032890 -0.022621
v -0.006500 -0.032890 -0.022621
v 0.006500 -0.038401 -0.011048
v 0.006500 -0.037402 -0.013990
v -0.006500 -0.038401 -0.011048
v -0.006500 -0.037402 -0.013990
v 0.006500 -0.039869 -0.002000
v -0.006500 -0.039869 -0.002000
v -0.006500 -0.040000 -0.000000
v 0.006500 -0.040000 0.000000
v 0.006500 -0.039869 0.002000
v -0.006500 -0.039869 0.002000
v 0.006500 -0.037402 0.013990
v 0.006500 -0.038401 0.011048
v -0.006500 -0.037402 0.013990
v -0.006500 -0.038401 0.011048
v 0.006500 -0.032890 0.022621
v -0.006500 -0.032890 0.022621
v -0.006500 -0.031734 0.024350
v 0.006500 -0.031734 0.024350
v 0.006500 -0.031335 0.024806
v -0.006500 -0.031335 0.024806
v -0.006500 -0.024306 0.031764
v 0.006500 -0.024306 0.031764
v 0.006500 -0.021872 0.033390
v -0.006500 -0.021872 0.033390
v 0.006500 -0.013490 0.037572
v -0.006500 -0.013490 0.037572
v -0.006500 -0.010490 0.038590
v 0.006500 -0.010490 0.038590
v 0.006500 -0.001500 0.039902
v -0.006500 -0.001500 0.039902
v -0.006500 0.000000 0.040000
v 0.006500 0.000000 0.040000
v 0.006500 0.001500 0.039902
v -0.006500 0.001500 0.039902
v -0.006500 0.010490 0.038590
v 0.006500 0.010490 0.038590
v 0.006500 0.013490 0.037572
v -0.006500 0.013490 0.037572
v 0.006500 0.021872 0.033390
v -0.006500 0.021872 0.033390
v -0.006500 0.024306 0.031764
v 0.006500 0.024306 0.031764
v 0.006500 0.031335 0.024806
v -0.006500 0.031335 0.024806
v 0.006500 0.031734 0.024350
v -0.006500 0.031734 0.024350
v 0.006500 0.032890 0.022621
v -0.006500 0.032890 0.022621
v 0.006500 0.038401 0.011048
v 0.006500 0.037402 0.013990
v -0.006500 0.037402 0.013990
v -0.006500 0.038401 0.011048
v 0.006500 0.039869 0.002000
v -0.006500 0.039869 0.002000
vn -0.0000 0.9979 -0.0654
vn -0.0000 0.9808 -0.1951
vn -0.0000 0.9469 -0.3214
vn -0.0000 0.8969 -0.4423
vn -0.0000 0.8315 -0.5556
vn -0.0000 0.7518 -0.6593
vn -0.0000 0.6593 -0.7518
vn -0.0000 0.5556 -0.8315
vn -0.0000 0.4423 -0.8969
vn -0.0000 0.3215 -0.9469
vn -0.0000 0.3214 -0.9469
vn -0.0000 0.1951 -0.9808
vn -0.0000 0.0654 -0.9979
vn -0.0000 -0.0654 -0.9979
vn -0.0000 -0.1951 -0.9808
vn -0.0000 -0.3215 -0.9469
vn -0.0000 -0.3214 -0.9469
vn -0.0000 -0.4423 -0.8969
vn -0.0000 -0.5556 -0.8315
vn -0.0000 -0.6593 -0.7518
vn -0.0000 -0.7518 -0.6593
vn -0.0000 -0.8315 -0.5556
vn -0.0000 -0.8969 -0.4423
vn -0.0000 -0.9469 -0.3214
vn -0.0000 -0.9808 -0.1951
vn -0.0000 -0.9979 -0.0654
vn -0.0000 -0.9979 0.0654
vn -0.0000 -0.9808 0.1951
vn -0.0000 -0.9469 0.3214
vn -0.0000 -0.8969 0.4423
vn -0.0000 -0.8315 0.5556
vn -0.0000 -0.7518 0.6593
vn -0.0000 -0.6593 0.7518
vn -0.0000 -0.5556 0.8315
vn -0.0000 -0.4423 0.8969
vn -0.0000 -0.3215 0.9469
vn -0.0000 -0.3214 0.9469
vn -0.0000 -0.1951 0.9808
vn -0.0000 -0.0654 0.9979
vn -0.0000 0.0654 0.9979
vn -0.0000 0.1951 0.9808
vn -0.0000 0.3215 0.9469
vn -0.0000 0.3214 0.9469
vn -0.0000 0.4423 0.8969
vn -0.0000 0.5556 0.8315
vn -0.0000 0.6593 0.7518
vn -0.0000 0.7518 0.6593
vn -0.0000 0.8315 0.5556
vn -0.0000 0.8969 0.4423
vn -0.0000 0.9469 0.3214
vn 1.0000 -0.0000 -0.0000
vn -0.0000 0.9808 0.1951
vn -0.0000 0.9979 0.0654
vn -1.0000 -0.0000 -0.0000
vn -0.0000 -0.0000 -1.0000
vn -0.0000 -1.0000 -0.0000
vn -0.0000 1.0000 -0.0000
vn -0.0000 -0.0000 1.0000
s 0
usemtl DWLRP_Black
f 3//1 7//1 5//1 1//1 202//1 204//1 201//1 203//1
f 5//2 7//2 10//2 9//2
f 206//3 10//3 12//3 11//3 9//3 207//3 208//3 205//3
f 9//3 10//3 206//3 207//3
f 11//4 12//4 15//4 14//4
f 17//5 14//5 15//5 20//5 211//5 209//5 210//5 212//5
f 20//6 22//6 21//6 17//6 212//6 214//6 213//6 211//6
f 21//7 22//7 24//7 23//7
f 216//8 23//8 24//8 217//8
f 217//8 24//8 28//8 26//8 23//8 216//8 218//8 215//8
f 26//9 28//9 32//9 30//9
f 221//10 36//10 34//10 220//10
f 220//11 34//11 30//11 32//11 36//11 221//11 219//11 222//11
f 34//12 36//12 38//12 37//12
f 225//13 40//13 37//13 38//13 42//13 226//13 223//13 224//13
f 226//14 42//14 46//14 44//14 40//14 225//14 228//14 227//14
f 44//15 46//15 50//15 48//15
f 230//16 48//16 50//16 231//16
f 231//17 50//17 52//17 51//17 48//17 230//17 232//17 229//17
f 51//18 52//18 55//18 53//18
f 235//19 59//19 58//19 234//19
f 234//19 58//19 53//19 55//19 59//19 235//19 233//19 236//19
f 58//20 59//20 63//20 62//20
f 239//21 65//21 62//21 63//21 66//21 240//21 237//21 238//21
f 240//22 66//22 69//22 67//22 65//22 239//22 242//22 241//22
f 67//23 69//23 72//23 71//23
f 75//24 73//24 245//24 243//24
f 245//24 73//24 71//24 72//24 75//24 243//24 244//24 246//24
f 73//25 75//25 78//25 77//25
f 249//26 80//26 77//26 78//26 82//26 250//26 247//26 248//26
f 250//27 82//27 84//27 83//27 80//27 249//27 252//27 251//27
f 83//28 84//28 88//28 86//28
f 254//29 88//29 91//29 89//29 86//29 256//29 255//29 253//29
f 86//29 88//29 254//29 256//29
f 89//30 91//30 95//30 93//30
f 259//31 97//31 93//31 95//31 98//31 260//31 257//31 258//31
f 260//32 98//32 101//32 99//32 97//32 259//32 262//32 261//32
f 99//33 101//33 105//33 103//33
f 263//34 103//34 105//34 264//34
f 105//34 110//34 108//34 103//34 263//34 266//34 265//34 264//34
f 108//35 110//35 112//35 111//35
f 116//36 113//36 269//36 270//36
f 113//37 111//37 112//37 116//37 270//37 267//37 268//37 269//37
f 113//38 116//38 120//38 117//38
f 121//39 117//39 120//39 122//39 274//39 271//39 272//39 273//39
f 122//40 124//40 123//40 121//40 273//40 276//40 275//40 274//40
f 123//41 124//41 128//41 126//41
f 277//42 126//42 128//42 278//42
f 128//43 132//43 130//43 126//43 277//43 280//43 279//43 278//43
f 130//44 132//44 134//44 133//44
f 136//45 135//45 283//45 284//45
f 135//45 133//45 134//45 136//45 284//45 281//45 282//45 283//45
f 135//46 136//46 139//46 137//46
f 142//47 137//47 139//47 144//47 287//47 285//47 286//47 288//47
f 144//48 146//48 145//48 142//48 288//48 290//48 289//48 287//48
f 145//49 146//49 148//49 147//49
f 151//50 150//50 294//50 291//50
f 150//50 147//50 148//50 151//50 291//50 292//50 293//50 294//50
f 15//51 12//51 10//51 7//51 3//51 155//51 151//51 148//51 146//51 144//51 139//51 136//51 134//51 132//51 128//51 124//51 122//51 120//51 116//51 112//51 110//51 105//51 101//51 98//51 95//51 91//51 88//51 84//51 82//51 78//51 75//51 72//51 69//51 66//51 63//51 59//51 55//51 52//51 50//51 46//51 42//51 38//51 36//51 32//51 28//51 24//51 22//51 20//51
f 150//52 151//52 155//52 154//52
f 1//53 154//53 155//53 3//53 203//53 295//53 296//53 202//53
f 154//54 1//54 5//54 9//54 11//54 14//54 17//54 21//54 23//54 26//54 30//54 34//54 37//54 40//54 44//54 48//54 51//54 53//54 58//54 62//54 65//54 67//54 71//54 73//54 77//54 80//54 83//54 86//54 89//54 93//54 97//54 99//54 103//54 108//54 111//54 113//54 117//54 121//54 123//54 126//54 130//54 133//54 135//54 137//54 142//54 145//54 147//54 150//54
f 2//55 6//55 8//55 4//55
f 223//56 8//56 6//56 224//56
f 228//57 2//57 4//57 227//57
f 224//51 6//51 2//51 228//51 225//51
f 4//54 8//54 223//54 226//54 227//54
f 13//55 18//55 19//55 16//55
f 219//56 19//56 18//56 222//56
f 220//57 13//57 16//57 221//57
f 222//51 18//51 13//51 220//51
f 221//54 16//54 19//54 219//54
f 25//55 29//55 31//55 27//55
f 217//56 31//56 29//56 216//56
f 33//58 35//58 215//58 218//58
f 27//57 35//57 33//57 25//57
f 216//51 29//51 25//51 33//51 218//51
f 35//54 27//54 31//54 217//54 215//54
f 41//55 39//55 43//55 45//55
f 209//56 45//56 43//56 210//56
f 47//58 49//58 213//58 214//58
f 41//57 49//57 47//57 39//57
f 210//51 43//51 39//51 47//51 214//51 212//51
f 211//54 213//54 49//54 41//54 45//54 209//54
f 54//55 57//55 60//55 56//55
f 206//56 60//56 57//56 207//56
f 208//58 61//58 64//58 205//58
f 61//57 54//57 56//57 64//57
f 207//51 57//51 54//51 61//51 208//51
f 64//54 56//54 60//54 206//54 205//54
f 295//55 70//55 68//55 296//55
f 204//58 74//58 76//58 201//58
f 74//57 68//57 70//57 76//57
f 296//51 68//51 74//51 204//51 202//51
f 76//54 70//54 295//54 203//54 201//54
f 292//55 81//55 79//55 293//55
f 90//56 92//56 291//56 294//56
f 90//58 85//58 87//58 92//58
f 85//57 79//57 81//57 87//57
f 293//51 79//51 85//51 90//51 294//51
f 81//54 292//54 291//54 92//54 87//54
f 285//55 96//55 94//55 286//55
f 290//56 104//56 106//56 289//56
f 102//58 106//58 104//58 100//58
f 96//57 102//57 100//57 94//57
f 286//51 94//51 100//51 104//51 290//51 288//51
f 96//54 285//54 287//54 289//54 106//54 102//54
f 281//55 109//55 107//55 282//55
f 118//56 119//56 284//56 283//56
f 118//58 114//58 115//58 119//58
f 109//57 115//57 114//57 107//57
f 282//51 107//51 114//51 118//51 283//51
f 284//54 119//54 115//54 109//54 281//54
f 129//56 131//56 279//56 280//56
f 129//58 125//58 127//58 131//58
f 127//57 125//57 277//57 278//57
f 125//51 129//51 280//51 277//51
f 279//54 131//54 127//54 278//54
f 141//56 143//56 275//56 276//56
f 141//58 138//58 140//58 143//58
f 140//57 138//57 272//57 271//57
f 272//51 138//51 141//51 276//51 273//51
f 143//54 140//54 271//54 274//54 275//54
f 153//56 156//56 270//56 269//56
f 153//58 149//58 152//58 156//58
f 152//57 149//57 268//57 267//57
f 268//51 149//51 153//51 269//51
f 270//54 156//54 152//54 267//54
f 266//55 157//55 158//55 265//55
f 158//56 157//56 161//56 162//56
f 161//58 159//58 160//58 162//58
f 160//57 159//57 263//57 264//57
f 263//51 159//51 161//51 157//51 266//51
f 162//54 160//54 264//54 265//54 158//54
f 262//55 163//55 164//55 261//55
f 164//56 163//56 167//56 168//56
f 166//58 168//58 167//58 165//58
f 166//57 165//57 258//57 257//57
f 163//51 262//51 259//51 258//51 165//51 167//51
f 164//54 168//54 166//54 257//54 260//54 261//54
f 169//55 170//55 253//55 255//55
f 169//56 173//56 174//56 170//56
f 173//58 171//58 172//58 174//58
f 172//57 171//57 256//57 254//57
f 169//51 255//51 256//51 171//51 173//51
f 253//54 170//54 174//54 172//54 254//54
f 175//55 176//55 251//55 252//55
f 175//56 177//56 178//56 176//56
f 178//58 177//58 248//58 247//58
f 248//51 177//51 175//51 252//51 249//51
f 251//54 176//54 178//54 247//54 250//54
f 179//55 181//55 182//55 180//55
f 181//56 183//56 184//56 182//56
f 184//58 183//58 246//58 244//58
f 245//57 179//57 180//57 243//57
f 246//51 183//51 181//51 179//51 245//51
f 180//54 182//54 184//54 244//54 243//54
f 186//55 185//55 187//55 188//55
f 188//56 187//56 189//56 190//56
f 190//58 189//58 238//58 237//58
f 185//57 186//57 241//57 242//57
f 238//51 189//51 187//51 185//51 242//51 239//51
f 186//54 188//54 190//54 237//54 240//54 241//54
f 191//55 193//55 194//55 192//55
f 194//56 193//56 195//56 196//56
f 196//58 195//58 236//58 233//58
f 234//57 191//57 192//57 235//57
f 236//51 195//51 193//51 191//51 234//51
f 192//54 194//54 196//54 233//54 235//54
f 197//55 199//55 200//55 198//55
f 231//56 200//56 199//56 230//56
f 232//57 197//57 198//57 229//57
f 199//51 197//51 232//51 230//51
f 198//54 200//54 231//54 229//54
o DWLRP_R_WheelHub_Hub
v -0.011000 0.009000 -0.000000
v 0.011000 0.009000 0.000000
v -0.011000 0.008693 -0.002329
v 0.011000 0.008693 -0.002329
v -0.011000 0.007794 -0.004500
v 0.011000 0.007794 -0.004500
v -0.011000 0.006364 -0.006364
v 0.011000 0.006364 -0.006364
v -0.011000 0.004500 -0.007794
v 0.011000 0.004500 -0.007794
v -0.011000 0.002329 -0.008693
v 0.011000 0.002329 -0.008693
v -0.011000 0.000000 -0.009000
v 0.011000 0.000000 -0.009000
v -0.011000 -0.002329 -0.008693
v 0.011000 -0.002329 -0.008693
v -0.011000 -0.004500 -0.007794
v 0.011000 -0.004500 -0.007794
v -0.011000 -0.006364 -0.006364
v 0.011000 -0.006364 -0.006364
v -0.011000 -0.007794 -0.004500
v 0.011000 -0.007794 -0.004500
v -0.011000 -0.008693 -0.002329
v 0.011000 -0.008693 -0.002329
v -0.011000 -0.009000 -0.000000
v 0.011000 -0.009000 0.000000
v -0.011000 -0.008693 0.002329
v 0.011000 -0.008693 0.002329
v -0.011000 -0.007794 0.004500
v 0.011000 -0.007794 0.004500
v -0.011000 -0.006364 0.006364
v 0.011000 -0.006364 0.006364
v -0.011000 -0.004500 0.007794
v 0.011000 -0.004500 0.007794
v -0.011000 -0.002329 0.008693
v 0.011000 -0.002329 0.008693
v -0.011000 0.000000 0.009000
v 0.011000 0.000000 0.009000
v -0.011000 0.002329 0.008693
v 0.011000 0.002329 0.008693
v -0.011000 0.004500 0.007794
v 0.011000 0.004500 0.007794
v -0.011000 0.006364 0.006364
v 0.011000 0.006364 0.006364
v -0.011000 0.007794 0.004500
v 0.011000 0.007794 0.004500
v -0.011000 0.008693 0.002329
v 0.011000 0.008693 0.002329
vn -0.0000 0.9914 -0.1305
vn -0.0000 0.9239 -0.3827
vn -0.0000 0.7934 -0.6088
vn -0.0000 0.6088 -0.7934
vn -0.0000 0.3827 -0.9239
vn -0.0000 0.1305 -0.9914
vn -0.0000 -0.1305 -0.9914
vn -0.0000 -0.3827 -0.9239
vn -0.0000 -0.6088 -0.7934
vn -0.0000 -0.7934 -0.6088
vn -0.0000 -0.9239 -0.3827
vn -0.0000 -0.9914 -0.1305
vn -0.0000 -0.9914 0.1305
vn -0.0000 -0.9239 0.3827
vn -0.0000 -0.7934 0.6088
vn -0.0000 -0.6088 0.7934
vn -0.0000 -0.3827 0.9239
vn -0.0000 -0.1305 0.9914
vn -0.0000 0.1305 0.9914
vn -0.0000 0.3827 0.9239
vn -0.0000 0.6088 0.7934
vn -0.0000 0.7934 0.6088
vn 1.0000 -0.0000 -0.0000
vn -0.0000 0.9239 0.3827
vn -0.0000 0.9914 0.1305
vn -1.0000 -0.0000 -0.0000
s 0
usemtl DWLRP_Metal
f 297//59 298//59 300//59 299//59
f 299//60 300//60 302//60 301//60
f 301//61 302//61 304//61 303//61
f 303//62 304//62 306//62 305//62
f 305//63 306//63 308//63 307//63
f 307//64 308//64 310//64 309//64
f 309//65 310//65 312//65 311//65
f 311//66 312//66 314//66 313//66
f 313//67 314//67 316//67 315//67
f 315//68 316//68 318//68 317//68
f 317//69 318//69 320//69 319//69
f 319//70 320//70 322//70 321//70
f 321//71 322//71 324//71 323//71
f 323//72 324//72 326//72 325//72
f 325//73 326//73 328//73 327//73
f 327//74 328//74 330//74 329//74
f 329//75 330//75 332//75 331//75
f 331//76 332//76 334//76 333//76
f 333//77 334//77 336//77 335//77
f 335//78 336//78 338//78 337//78
f 337//79 338//79 340//79 339//79
f 339//80 340//80 342//80 341//80
f 300//81 298//81 344//81 342//81 340//81 338//81 336//81 334//81 332//81 330//81 328//81 326//81 324//81 322//81 320//81 318//81 316//81 314//81 312//81 310//81 308//81 306//81 304//81 302//81
f 341//82 342//82 344//82 343//82
f 343//83 344//83 298//83 297//83
f 297//84 299//84 301//84 303//84 305//84 307//84 309//84 311//84 313//84 315//84 317//84 319//84 321//84 323//84 325//84 327//84 329//84 331//84 333//84 335//84 337//84 339//84 341//84 343//84
